<svg width="37" height="30" viewBox="0 0 37 30" fill="none" xmlns="http://www.w3.org/2000/svg">
<path d="M14.1 12.5762H14.8C15.7 12.5762 16.4 13.2762 16.4 14.1762V16.3762C16.4 17.2762 15.7 17.9762 14.8 17.9762H14.1C13.2 17.9762 12.5 17.2762 12.5 16.3762V14.1762C12.6 13.2762 13.3 12.5762 14.1 12.5762ZM22.7 20.1762H23.4C24.3 20.1762 25 20.8762 25 21.7762V23.9762C25 24.8762 24.3 25.5762 23.4 25.5762H22.7C21.8 25.5762 21.1 24.8762 21.1 23.9762V21.7762C21.2 20.8762 21.9 20.1762 22.7 20.1762Z" stroke="#F26101" stroke-width="1.44" stroke-miterlimit="22.9256"/>
<path d="M33.8 14.4768C35.1 12.6768 35.5 10.1768 34.5 7.87683C33.4 5.17683 30.7 3.67683 27.9 3.87683L27.3 2.47683C26.8 1.27683 25.3 0.676832 24.1 1.17683L7.3 8.37683M22.4 12.0768L15.3 25.9768L22.4 12.0768ZM7.9 8.87683H28.8C30.1 8.87683 31.2 9.97683 31.2 11.2768V12.7768C33.8 13.6768 35.7 16.1768 35.7 19.0768C35.7 21.9768 33.8 24.4768 31.2 25.3768V26.8768C31.2 28.1768 30.1 29.2768 28.8 29.2768H7.9C6.6 29.2768 5.5 28.1768 5.5 26.8768V25.3768C2.9 24.4768 1 21.9768 1 19.0768C1 16.1768 2.9 13.6768 5.5 12.7768V11.2768C5.5 9.97683 6.6 8.87683 7.9 8.87683Z" stroke="#F26101" stroke-width="1.44" stroke-miterlimit="22.9256" stroke-linecap="round" stroke-linejoin="round"/>
</svg>
