<svg width="16" height="15" viewBox="0 0 16 15" fill="none" xmlns="http://www.w3.org/2000/svg">
<path d="M8.046 14.612C7.062 14.612 6.138 14.426 5.274 14.054C4.422 13.694 3.666 13.19 3.006 12.542C2.358 11.882 1.848 11.12 1.476 10.256C1.104 9.392 0.918 8.468 0.918 7.484C0.918 6.5 1.104 5.576 1.476 4.712C1.848 3.848 2.358 3.092 3.006 2.444C3.666 1.784 4.422 1.274 5.274 0.913999C6.138 0.541999 7.062 0.356 8.046 0.356C9.03 0.356 9.954 0.541999 10.818 0.913999C11.682 1.274 12.438 1.784 13.086 2.444C13.746 3.092 14.256 3.848 14.616 4.712C14.988 5.576 15.174 6.5 15.174 7.484C15.174 8.468 14.988 9.392 14.616 10.256C14.256 11.12 13.746 11.882 13.086 12.542C12.438 13.19 11.682 13.694 10.818 14.054C9.954 14.426 9.03 14.612 8.046 14.612ZM8.046 13.37C8.862 13.37 9.624 13.22 10.332 12.92C11.04 12.608 11.664 12.182 12.204 11.642C12.744 11.102 13.164 10.478 13.464 9.77C13.776 9.062 13.932 8.3 13.932 7.484C13.932 6.668 13.776 5.906 13.464 5.198C13.164 4.49 12.744 3.866 12.204 3.326C11.664 2.786 11.04 2.366 10.332 2.066C9.624 1.754 8.862 1.598 8.046 1.598C7.23 1.598 6.468 1.754 5.76 2.066C5.052 2.366 4.428 2.786 3.888 3.326C3.348 3.866 2.922 4.49 2.61 5.198C2.31 5.906 2.16 6.668 2.16 7.484C2.16 8.3 2.31 9.062 2.61 9.77C2.922 10.478 3.348 11.102 3.888 11.642C4.428 12.182 5.052 12.608 5.76 12.92C6.468 13.22 7.23 13.37 8.046 13.37ZM8.046 9.086C7.602 9.086 7.224 8.93 6.912 8.618C6.6 8.306 6.444 7.928 6.444 7.484C6.444 7.04 6.6 6.662 6.912 6.35C7.224 6.038 7.602 5.882 8.046 5.882C8.49 5.882 8.868 6.038 9.18 6.35C9.492 6.662 9.648 7.04 9.648 7.484C9.648 7.928 9.492 8.306 9.18 8.618C8.868 8.93 8.49 9.086 8.046 9.086Z" fill="#004666"/>
</svg>
