<svg width="25" height="12" viewBox="0 0 25 12" fill="none" xmlns="http://www.w3.org/2000/svg">
<path d="M7.29318 6L11.4416 8.32044L10.6721 9.71271L6.49026 7.29282V12H4.95133L4.98479 7.29282L0.802919 9.71271L0 8.32044L4.18187 6L0 3.67956L0.802919 2.25414L4.98479 4.70718L4.95133 0H6.49026V4.70718L10.6721 2.25414L11.4416 3.67956L7.29318 6Z" fill="#004667"/>
<path d="M20.8516 6L25 8.32044L24.2305 9.71271L20.0487 7.29282V12H18.5097L18.5432 7.29282L14.3613 9.71271L13.5584 8.32044L17.7403 6L13.5584 3.67956L14.3613 2.25414L18.5432 4.70718L18.5097 0H20.0487V4.70718L24.2305 2.25414L25 3.67956L20.8516 6Z" fill="#004667"/>
</svg>
