<svg width="31" height="31" viewBox="0 0 31 31" fill="none" xmlns="http://www.w3.org/2000/svg">
<circle cx="15.5" cy="15.5" r="15.5" fill="#0E5C83"/>
<path d="M19.6611 7.00354L17.5024 7C15.0772 7 13.5099 8.64211 13.5099 11.1837V13.1127H11.3394C11.1519 13.1127 11 13.268 11 13.4595V16.2544C11 16.4459 11.1521 16.601 11.3394 16.601H13.5099V23.6534C13.5099 23.8449 13.6618 24 13.8493 24H16.6812C16.8687 24 17.0206 23.8447 17.0206 23.6534V16.601H19.5584C19.7459 16.601 19.8978 16.4459 19.8978 16.2544L19.8989 13.4595C19.8989 13.3675 19.863 13.2795 19.7995 13.2144C19.7359 13.1493 19.6493 13.1127 19.5593 13.1127H17.0206V11.4775C17.0206 10.6915 17.204 10.2925 18.2065 10.2925L19.6607 10.292C19.8481 10.292 20 10.1367 20 9.94537V7.35018C20 7.15899 19.8483 7.00389 19.6611 7.00354Z" fill="white"/>
</svg>
