<svg width="57" height="39" viewBox="0 0 57 39" fill="none" xmlns="http://www.w3.org/2000/svg">
<g clip-path="url(#clip0)">
<path d="M56.3 34.5C55.8 35 55.4 35.5 54.9 36C52.2 33.3 49.6 30.5 47 27.8C46.9 27.9 46.8 27.9 46.8 28C44.5 29.8 41.8 30.9 38.9 31.2C32.5 31.9 26.4 28.6 23.4 22.9C23.3 22.6 23.1 22.4 23 22.1C22.9 21.9 22.8 21.9 22.7 21.9C22.2 21.9 21.7 21.9 21.2 21.9C21.2 17.2 21.2 12.5 21.2 7.8C21.6 7.8 22 7.8 22.4 7.8C22.8 7.8 23.1 7.8 23.5 7.8C23.7 7.8 23.8 7.7 23.9 7.6C25.5 5 27.6 3.1 30.2 1.7C32.2 0.699999 34.4 0.0999993 36.7 -6.79865e-07C41.2 -0.100001 45.1 1.3 48.3 4.5C50.7 6.9 52.2 9.7 52.8 13.1C53.6 18.2 52.2 22.6 48.7 26.4C48.7 26.4 48.7 26.4 48.6 26.5C51.1 29.2 53.7 31.9 56.3 34.5ZM36.9 26.3C36.8 25.8 36.7 25.3 36.3 25C35.9 24.6 35.5 24.5 35 24.5C34.6 24.5 34.2 24.7 33.9 24.9C33.4 25.3 33.2 25.8 33.2 26.3C32.6 26.3 32 26.3 31.5 26.3C31.5 26.2 31.5 26.2 31.5 26.1C31.4 25.2 30.6 24.5 29.7 24.5C28.7 24.5 27.9 25.1 27.8 26.1C27.8 26.3 27.8 26.5 28 26.7C30.9 29.1 34.2 30.3 37.9 30.1C39.9 30 41.9 29.5 43.7 28.6C49.3 25.9 52.5 19.8 51.6 13.7C51 10 49.3 6.9 46.4 4.5C45.8 4 45.2 3.6 44.6 3.2C44.1 3.8 43.9 4.4 44.1 5C44.4 5.9 45 6.3 45.9 6.4C45.9 6.9 45.9 7.3 45.9 7.8C45.9 8 45.8 8.1 45.6 8.1C44.9 8.2 44.4 8.6 44.1 9.3C43.8 10 44 10.6 44.4 11.1C44.8 11.5 45.2 11.8 45.8 11.8C45.8 12.4 45.8 12.9 45.8 13.4C44.6 13.7 44 14.3 44 15.2C44 15.6 44.1 16 44.3 16.3C44.7 16.8 45.2 17.1 45.8 17.1C45.8 17.7 45.8 18.2 45.8 18.7C45.7 18.7 45.5 18.7 45.4 18.8C44.5 19 43.8 19.9 43.9 20.8C44 21.7 44.6 22.3 45.5 22.4C45.6 22.4 45.7 22.4 45.7 22.6C45.7 23.1 45.7 23.6 45.7 24.1C44.6 24.2 43.9 24.8 43.8 26C43.2 26 42.6 26 42.1 26C41.9 24.8 41.2 24.2 40.3 24.2C39.9 24.2 39.5 24.3 39.2 24.5C38.7 24.9 38.4 25.4 38.4 26C38 26.3 37.5 26.3 36.9 26.3ZM31.9 7.4C31.9 7.5 31.9 7.5 31.9 7.6C31.9 12.4 31.9 17.2 31.9 22C31.9 22.2 32 22.3 32.2 22.3C33.5 22.3 34.8 22.3 36.1 22.3C36.2 22.3 36.3 22.3 36.4 22.3C36.4 20.7 36.4 19.2 36.4 17.6C36.6 17.6 36.9 17.6 37.1 17.6C37.7 17.6 38.3 17.5 38.9 17.4C40.2 17.2 41.4 16.6 42.2 15.6C43.2 14.3 43.5 12.8 43.2 11.2C42.9 9.6 42.1 8.5 40.6 7.9C39.8 7.6 39 7.4 38.2 7.4C36.2 7.4 34.1 7.4 32.1 7.4C32.1 7.4 32 7.4 31.9 7.4ZM30 12.7C28.4 12.7 26.8 12.7 25.2 12.7C25.2 12.2 25.2 11.8 25.2 11.4C27.1 11.4 28.9 11.4 30.8 11.4C30.8 10.1 30.8 8.8 30.8 7.4C30.7 7.4 30.6 7.4 30.5 7.4C28.9 7.4 27.3 7.4 25.7 7.4C25.5 7.4 25.4 7.5 25.2 7.6C23.9 9.6 23.1 11.8 22.8 14.3C22.6 17 23.1 19.7 24.3 22.1C24.4 22.3 24.5 22.3 24.6 22.3C26.6 22.3 28.6 22.3 30.6 22.3C30.8 22.3 30.9 22.2 30.9 22C30.9 20.9 30.9 19.7 30.9 18.6C30.9 18.3 30.8 18.3 30.6 18.3C28.9 18.3 27.2 18.3 25.5 18.3C25.4 18.3 25.3 18.3 25.2 18.3C25.2 17.8 25.2 17.3 25.2 16.7C26.8 16.7 28.4 16.7 30 16.7C30 15.4 30 14.1 30 12.7Z" fill="white"/>
<path d="M13.6 21.9C13.3 21.9 13 21.9 12.8 21.9C11.9 21.9 10.9 21.9 10 21.9C9.8 21.9 9.7 21.8 9.6 21.6C9.4 20.8 9.1 19.9 8.8 19.1C8.7 18.9 8.7 18.8 8.4 18.8C7.2 18.8 5.9 18.8 4.7 18.8C4.5 18.8 4.4 18.9 4.3 19.1C4 19.9 3.8 20.8 3.5 21.6C3.5 21.7 3.4 21.9 3.2 21.8C2.2 21.8 1.1 21.8 0.100002 21.8C0.100002 21.8 1.52737e-06 21.8 -0.0999985 21.8C0.200002 20.9 0.500002 20 0.700002 19.2C1.9 15.5 3.1 11.7 4.3 8C4.4 7.8 4.4 7.7 4.6 7.7C5.8 7.7 7 7.7 8.2 7.7C8.4 7.7 8.5 7.8 8.6 8C10.1 12.4 11.7 16.8 13.2 21.3C13.5 21.5 13.5 21.7 13.6 21.9ZM8.1 16.2C7.6 14.5 7.2 12.9 6.7 11.2H6.6C6.1 12.9 5.6 14.5 5.1 16.2C6.1 16.2 7.1 16.2 8.1 16.2Z" fill="white"/>
<path d="M15 7.8C16.2 7.8 17.4 7.8 18.6 7.8C18.6 12.5 18.6 17.2 18.6 21.9C17.4 21.9 16.2 21.9 15 21.9C15 17.2 15 12.5 15 7.8Z" fill="white"/>
<path d="M31.9 36.7C31.9 37.2 31.9 37.6 31.9 38.1C31.8 38.1 31.7 38.1 31.6 38.1C31.6 36.8 31.6 35.5 31.6 34.2C31.7 34.2 31.8 34.2 31.9 34.2C31.9 34.3 31.9 34.4 31.9 34.5C32 34.4 32.2 34.3 32.3 34.2C32.8 34 33.3 34.2 33.5 34.7C33.8 35.3 33.8 36 33.5 36.6C33.3 37 32.8 37.2 32.4 37.1C32.3 36.9 32.1 36.8 31.9 36.7ZM33.4 35.5C33.3 35.2 33.3 35 33.2 34.7C33.1 34.5 32.9 34.3 32.7 34.3C32.4 34.3 32.2 34.4 32.1 34.6C31.8 35.1 31.8 35.7 32.1 36.2C32.2 36.4 32.4 36.5 32.6 36.5C32.9 36.5 33.1 36.4 33.1 36.1C33.3 36 33.3 35.8 33.4 35.5Z" fill="white"/>
<path d="M13.6 36.6C13.6 37.1 13.6 37.6 13.6 38.1C13.5 38.1 13.4 38.1 13.2 38.1C13.2 36.8 13.2 35.5 13.2 34.2C13.3 34.2 13.4 34.2 13.5 34.2C13.5 34.3 13.5 34.4 13.5 34.4C13.7 34.3 14 34.2 14.2 34.1C14.6 34 15 34.3 15.1 34.7C15.3 35.3 15.3 35.8 15.1 36.4C15 37.1 14.1 37.2 13.6 36.6ZM15.1 35.5C15 35.2 15 35 14.9 34.7C14.7 34.3 14.1 34.2 13.9 34.7C13.6 35.2 13.6 35.8 13.9 36.3C14 36.5 14.2 36.6 14.5 36.6C14.8 36.6 14.9 36.4 15 36.2C15 36 15 35.8 15.1 35.5Z" fill="white"/>
<path d="M1.9 36.9C1.9 36.8 1.9 36.7 1.9 36.6C1.6 36.9 1.3 37 0.900005 37C0.500005 36.9 0.300005 36.7 0.100005 36.3C-0.0999954 35.8 -0.0999954 35.2 0.100005 34.7C0.300005 34 1.1 33.8 1.7 34.3C1.7 34.3 1.8 34.3 1.8 34.4C1.8 34.1 1.8 33.8 1.8 33.6C1.8 33.3 1.8 33.1 1.8 32.8C1.9 32.8 2 32.8 2.1 32.8C2.1 34.2 2.1 35.6 2.1 36.9C2.1 36.9 2 36.9 1.9 36.9ZM1.9 35.5C1.8 35.2 1.8 35 1.7 34.8C1.6 34.6 1.4 34.4 1.1 34.4C0.800005 34.4 0.600005 34.6 0.500005 34.8C0.300005 35.3 0.300005 35.8 0.500005 36.2C0.600005 36.4 0.800005 36.6 1.1 36.6C1.4 36.6 1.6 36.5 1.7 36.2C1.8 36 1.8 35.8 1.9 35.5Z" fill="white"/>
<path d="M4.6 36.5C4.7 36.9 4.7 36.9 4.3 37C3.4 37.2 2.8 36.8 2.7 35.9C2.6 35.4 2.7 34.9 3 34.5C3.5 33.9 4.4 34 4.6 34.7C4.7 35 4.7 35.3 4.8 35.7C4.2 35.7 3.6 35.7 3.1 35.7C3.1 36.5 3.6 36.8 4.6 36.5ZM3.1 35.3C3.5 35.3 4 35.3 4.4 35.3C4.4 34.7 4.2 34.4 3.8 34.4C3.5 34.4 3.2 34.7 3.1 35.3Z" fill="white"/>
<path d="M49.7 36.4C49.7 36.8 49.7 36.8 49.3 36.9C48.1 37.1 47.7 36.4 47.8 35.4C47.8 35.1 47.9 34.7 48.1 34.4C48.5 33.8 49.4 33.9 49.7 34.6C49.8 34.9 49.8 35.2 49.9 35.6C49.3 35.6 48.7 35.6 48.2 35.6C48.2 36.5 48.8 36.8 49.7 36.4ZM49.5 35.3C49.5 34.7 49.3 34.4 48.9 34.4C48.5 34.4 48.2 34.8 48.2 35.3C48.7 35.3 49.1 35.3 49.5 35.3Z" fill="white"/>
<path d="M27 35.6C26.4 35.6 25.8 35.6 25.3 35.6C25.2 36.4 25.8 36.7 26.8 36.4C26.8 36.8 26.8 36.8 26.4 36.9C25.5 37.1 24.9 36.7 24.9 35.7C24.9 35.3 24.9 34.9 25.1 34.5C25.3 34.1 25.7 33.9 26.1 33.9C26.5 33.9 26.8 34.2 26.9 34.6C26.9 35 26.9 35.3 27 35.6ZM26.6 35.3C26.6 35 26.5 34.7 26.3 34.5C26.1 34.4 25.9 34.4 25.7 34.5C25.4 34.7 25.3 35 25.3 35.3C25.7 35.3 26.1 35.3 26.6 35.3Z" fill="white"/>
<path d="M10.6 35.6C10.2 35.6 10 35.6 9.7 35.6C9.4 35.6 9.2 35.6 8.9 35.6C8.8 36.4 9.4 36.7 10.4 36.4C10.4 36.8 10.4 36.8 10.1 36.9C9.2 37.1 8.6 36.7 8.5 35.7C8.5 35.3 8.5 34.9 8.7 34.6C8.9 34.2 9.2 34 9.7 34C10.1 34 10.4 34.3 10.5 34.7C10.5 35 10.6 35.3 10.6 35.6ZM10.2 35.3C10.2 35 10.1 34.7 9.9 34.5C9.7 34.4 9.5 34.4 9.3 34.5C9 34.7 8.9 35 8.9 35.3C9.3 35.3 9.7 35.3 10.2 35.3Z" fill="white"/>
<path d="M16.3 35.7C16.3 36.6 16.8 36.8 17.8 36.5C17.9 36.8 17.9 36.9 17.5 37C16.5 37.2 15.9 36.8 15.9 35.8C15.9 35.4 15.9 34.9 16.2 34.5C16.4 34.2 16.7 34 17.1 34.1C17.5 34.1 17.7 34.4 17.8 34.7C17.9 34.9 17.9 35.2 17.9 35.4C17.9 35.6 17.9 35.7 17.7 35.7C17.3 35.7 16.9 35.7 16.5 35.7C16.4 35.6 16.3 35.6 16.3 35.7ZM17.5 35.3C17.5 34.8 17.3 34.4 16.9 34.4C16.6 34.4 16.2 34.8 16.2 35.3C16.7 35.3 17.1 35.3 17.5 35.3Z" fill="white"/>
<path d="M45.3 35.6C44.7 35.6 44.1 35.6 43.6 35.6C43.5 36.4 44.1 36.8 45 36.4C45.1 36.8 45.1 36.8 44.7 36.9C43.7 37.1 43.1 36.6 43.1 35.6C43.1 35.2 43.1 34.8 43.3 34.5C43.5 34.1 43.8 33.9 44.3 34C44.7 34 45 34.3 45.1 34.7C45.2 35 45.2 35.3 45.3 35.6ZM43.6 35.3C44 35.3 44.5 35.3 44.9 35.3C44.9 34.8 44.7 34.4 44.4 34.4C43.9 34.3 43.6 34.7 43.6 35.3Z" fill="white"/>
<path d="M14.2 27.2C14.1 27.2 14 27.2 13.9 27.2C13.9 27.1 13.9 27 13.9 27C13.7 27.1 13.5 27.2 13.3 27.3C12.8 27.4 12.4 27.2 12.3 26.8C12.1 26.3 12.3 25.8 12.8 25.7C13.1 25.6 13.5 25.6 13.9 25.5C13.9 25.3 13.9 25 13.7 24.9C13.3 24.6 13 24.8 12.6 25C12.5 24.7 12.5 24.6 12.9 24.5C13 24.5 13.1 24.4 13.2 24.4C13.9 24.3 14.2 24.6 14.2 25.3C14.3 25.9 14.2 26.5 14.2 27.2ZM13.9 25.8C13.6 25.8 13.5 25.8 13.3 25.8C13.1 25.8 13 25.9 12.8 26C12.6 26.1 12.5 26.4 12.6 26.6C12.6 26.7 12.8 26.9 12.9 26.9C13.2 27 13.5 26.9 13.6 26.7C13.8 26.4 13.9 26.1 13.9 25.8Z" fill="white"/>
<path d="M1.9 27.2C1.8 27.2 1.7 27.2 1.6 27.2C1.6 27.1 1.6 27 1.5 26.9C1.5 27 1.5 27 1.4 27.1C1.1 27.3 0.7 27.3 0.4 27.2C0 27 0 26.7 0 26.3C0 25.9 0.2 25.7 0.6 25.6C0.9 25.5 1.3 25.5 1.6 25.4C1.6 25.2 1.6 24.9 1.4 24.7C1 24.5 0.7 24.6 0.4 24.8C0.3 24.5 0.3 24.4 0.6 24.3C0.7 24.3 0.9 24.2 1 24.2C1.6 24.2 1.9 24.4 1.9 25C2 25.8 1.9 26.5 1.9 27.2ZM1.6 25.7C1.2 25.8 0.9 25.8 0.7 25.9C0.5 26 0.3 26.2 0.4 26.4C0.4 26.5 0.6 26.7 0.7 26.8C1 27 1.4 26.8 1.5 26.4C1.6 26.3 1.6 26.1 1.6 25.7Z" fill="white"/>
<path d="M41 36.9C40.9 36.9 40.8 36.9 40.7 36.9C40.7 36.8 40.7 36.7 40.7 36.7C40.5 36.8 40.3 36.9 40.1 37C39.7 37.1 39.3 36.9 39.1 36.5C38.9 36.1 39.1 35.6 39.5 35.4C39.7 35.3 40 35.3 40.3 35.2C40.4 35.2 40.5 35.2 40.7 35.2C40.8 34.4 40.4 34.2 39.5 34.6C39.4 34.3 39.5 34.2 39.8 34.1C39.9 34.1 40 34 40.2 34C40.8 33.9 41.2 34.2 41.2 34.8C41 35.5 41 36.2 41 36.9ZM40.7 35.5C40.3 35.6 40 35.6 39.7 35.7C39.5 35.8 39.4 36 39.4 36.3C39.4 36.4 39.6 36.6 39.7 36.7C40 36.8 40.4 36.7 40.5 36.3C40.6 36 40.7 35.8 40.7 35.5Z" fill="white"/>
<path d="M19.9 25.8C19.9 26 19.8 26.3 19.7 26.5C19.5 27 19.1 27.2 18.6 27.2C18.1 27.2 17.7 26.9 17.6 26.5C17.4 26.1 17.4 25.6 17.6 25.2C17.8 24.6 18.2 24.3 18.8 24.3C19.3 24.3 19.8 24.7 19.9 25.2C19.8 25.4 19.9 25.6 19.9 25.8ZM17.8 25.8C17.9 26.1 17.9 26.3 18 26.6C18.3 27.1 19 27.1 19.2 26.6C19.5 26.1 19.5 25.6 19.2 25.1C18.9 24.6 18.2 24.6 18 25.1C17.9 25.3 17.9 25.5 17.8 25.8Z" fill="white"/>
<path d="M8.7 25.9C8.7 26 8.7 26.2 8.6 26.4C8.5 26.9 8 27.3 7.5 27.3C7 27.3 6.5 27 6.4 26.4C6.3 26 6.3 25.6 6.4 25.3C6.5 24.6 7 24.3 7.6 24.3C8.2 24.3 8.6 24.8 8.7 25.4C8.7 25.6 8.7 25.7 8.7 25.9ZM8.3 25.8C8.2 25.5 8.2 25.2 8 25C7.7 24.5 7.1 24.5 6.8 25C6.5 25.4 6.5 26.2 6.8 26.6C7.2 27 7.8 27 8 26.6C8.2 26.4 8.2 26.1 8.3 25.8Z" fill="white"/>
<path d="M28.8 30.8C28.2 30.8 27.6 30.8 27.1 30.8C27 31.7 27.6 32 28.6 31.6C28.7 32 28.7 32 28.3 32.1C27.4 32.3 26.8 31.9 26.7 31C26.6 30.5 26.7 30 27 29.5C27.4 28.9 28.3 29 28.6 29.7C28.6 30 28.7 30.4 28.8 30.8ZM28.3 30.4C28.3 30.1 28.2 29.7 27.9 29.6C27.7 29.5 27.5 29.6 27.3 29.7C27 29.9 26.9 30.1 27 30.5C27.4 30.4 27.9 30.4 28.3 30.4Z" fill="white"/>
<path d="M20 30.6C20 30.8 19.9 31 19.9 31.3C19.7 31.8 19.3 32.1 18.8 32.1C18.3 32.1 17.8 31.8 17.7 31.2C17.6 30.8 17.6 30.5 17.7 30.1C17.8 29.5 18.3 29.1 18.9 29.1C19.5 29.1 19.9 29.6 20 30.2C19.9 30.4 19.9 30.5 20 30.6ZM19.6 30.7C19.5 30.4 19.5 30.1 19.3 29.9C19 29.4 18.4 29.4 18.1 29.9C17.8 30.4 17.8 31 18.1 31.5C18.4 32 19 32 19.3 31.5C19.5 31.2 19.5 30.9 19.6 30.7Z" fill="white"/>
<path d="M7.6 30.8C7 30.8 6.4 30.8 5.9 30.8C5.9 31.7 6.4 32 7.4 31.6C7.4 32 7.4 32 7.1 32.1C6.1 32.3 5.5 31.9 5.5 30.9C5.5 30.5 5.5 30.2 5.7 29.8C5.9 29.3 6.3 29.1 6.7 29.1C7.1 29.1 7.4 29.4 7.6 29.9C7.5 30.2 7.6 30.5 7.6 30.8ZM7.1 30.4C7.1 29.9 6.9 29.5 6.5 29.5C6.1 29.5 5.8 29.9 5.8 30.4C6.3 30.4 6.7 30.4 7.1 30.4Z" fill="white"/>
<path d="M25 32.1C24.9 32.1 24.8 32.1 24.7 32.1C24.7 32 24.7 31.9 24.7 31.9C24.5 32 24.2 32.1 23.9 32.2C23.4 32.2 23.1 32 23 31.6C22.9 31.1 23.1 30.7 23.6 30.6C23.9 30.5 24.1 30.5 24.4 30.5C24.6 30.5 24.6 30.4 24.6 30.2C24.5 29.7 24.3 29.5 23.7 29.7C23.6 29.7 23.4 29.8 23.3 29.9C23.2 29.6 23.3 29.5 23.6 29.4C23.7 29.4 23.8 29.4 23.9 29.3C24.5 29.2 24.9 29.5 25 30.2C25 30.7 25 31.4 25 32.1ZM24.6 30.8C24.6 30.8 24.5 30.7 24.4 30.7C24.2 30.7 23.9 30.8 23.7 30.8C23.4 30.9 23.3 31.2 23.4 31.5C23.5 31.7 23.7 31.8 24 31.8C24.4 31.7 24.6 31.4 24.6 30.8Z" fill="white"/>
<path d="M12.7 29.7C12.6 29.4 12.7 29.3 13 29.2C13.1 29.2 13.3 29.1 13.4 29.1C14 29.1 14.3 29.4 14.3 29.9C14.3 30.6 14.3 31.3 14.3 32C14.2 32 14.1 32 14 32C14 31.9 14 31.8 14 31.7C14 31.7 14 31.7 13.9 31.7C13.7 31.8 13.5 32 13.2 32C12.7 32 12.5 31.8 12.4 31.4C12.3 31 12.5 30.5 12.9 30.4C13.2 30.3 13.5 30.3 13.8 30.2C14 30.2 14.1 30.1 14 29.9C13.9 29.4 13.6 29.3 13.1 29.4C13 29.6 12.8 29.7 12.7 29.7ZM13.9 30.6C13.6 30.7 13.3 30.7 13 30.8C12.8 30.9 12.7 31.2 12.8 31.5C12.9 31.7 13.1 31.8 13.4 31.8C13.8 31.7 14 31.3 13.9 30.6Z" fill="white"/>
<path d="M36 36.9C36 36.3 36 35.8 36 35.3C36 35.1 36 35 36 34.8C36 34.6 35.8 34.4 35.6 34.4C35.4 34.3 35.1 34.4 35 34.6C34.9 34.8 34.8 35.1 34.8 35.4C34.8 35.9 34.8 36.4 34.8 36.9C34.7 36.9 34.6 36.9 34.5 36.9C34.5 35.5 34.5 34.1 34.5 32.8C34.6 32.8 34.7 32.8 34.8 32.8C34.8 33.3 34.8 33.8 34.8 34.4C34.9 34.3 34.9 34.3 35 34.3C35.3 34 35.6 34 36 34.1C36.4 34.2 36.5 34.5 36.5 34.9C36.5 35.6 36.5 36.3 36.5 37C36.2 36.9 36.1 36.9 36 36.9Z" fill="white"/>
<path d="M20.4 24.4C20.5 24.4 20.6 24.4 20.7 24.4C20.7 24.5 20.7 24.6 20.7 24.7C20.9 24.6 21 24.4 21.2 24.4C21.8 24.2 22.3 24.5 22.3 25.2C22.4 25.9 22.3 26.6 22.3 27.3C22 27.2 22 27.2 22 26.9C22 26.4 22 25.9 22 25.5C22 25.4 22 25.3 22 25.1C21.9 24.9 21.8 24.7 21.6 24.6C21.3 24.6 21.1 24.7 21 24.9C20.9 25.1 20.8 25.3 20.8 25.5C20.8 26 20.8 26.5 20.8 26.9C20.8 27.2 20.7 27.2 20.4 27.2C20.4 26.3 20.4 25.3 20.4 24.4Z" fill="white"/>
<path d="M1.6 32C1.5 32 1.4 32 1.2 32C1.2 31.1 1.2 30.1 1.2 29.2C1.3 29.2 1.4 29.2 1.5 29.2C1.5 29.3 1.5 29.4 1.5 29.4C1.7 29.3 1.9 29.1 2.2 29.1C2.7 29 3.1 29.3 3.2 29.9C3.2 30.6 3.2 31.3 3.2 32C3.1 32 3 32 2.9 32C2.9 31.8 2.9 31.7 2.9 31.5C2.9 31 2.9 30.5 2.9 30C2.9 29.8 2.7 29.6 2.5 29.5C2.2 29.4 2 29.6 1.8 29.8C1.7 30 1.6 30.3 1.6 30.5C1.6 31 1.6 31.5 1.6 32Z" fill="white"/>
<path d="M10.2 32C10.1 32 10 32 9.9 32C9.9 31.1 9.9 30.1 9.9 29.2C10 29.2 10.1 29.2 10.2 29.2C10.2 29.3 10.2 29.4 10.2 29.5C10.4 29.4 10.5 29.3 10.7 29.2C11.2 29 11.7 29.3 11.8 29.9C11.9 30.3 11.8 30.8 11.9 31.2C11.9 31.5 11.9 31.8 11.9 32.1C11.8 32.1 11.7 32.1 11.5 32.1C11.5 31.9 11.5 31.7 11.5 31.4C11.5 31 11.5 30.6 11.5 30.1C11.5 29.7 11.3 29.5 11 29.5C10.7 29.5 10.4 29.6 10.3 30C10.2 30.2 10.2 30.5 10.2 30.7C10.2 31.1 10.2 31.6 10.2 32Z" fill="white"/>
<path d="M20.8 32C20.7 32 20.6 32 20.5 32C20.5 31.1 20.5 30.1 20.5 29.2C20.6 29.2 20.7 29.2 20.8 29.2C20.8 29.3 20.8 29.4 20.8 29.5C20.9 29.4 21.1 29.3 21.2 29.2C21.8 29 22.4 29.3 22.4 29.9C22.5 30.6 22.4 31.3 22.4 32C22.3 32 22.2 32 22.1 32C22.1 31.8 22.1 31.7 22.1 31.6C22.1 31.1 22.1 30.6 22.1 30.2C22.1 29.8 21.9 29.5 21.6 29.5C21.3 29.5 21 29.7 20.9 30.1C20.8 30.4 20.9 30.7 20.8 31C20.8 31.4 20.8 31.7 20.8 32Z" fill="white"/>
<path d="M29.1 36.9C29.1 36.4 29.1 35.8 29.1 35.3C29.1 35.1 29.1 35 29.1 34.8C29.1 34.6 28.9 34.4 28.7 34.3C28.4 34.3 28.2 34.3 28.1 34.6C28 34.8 27.9 35.1 27.9 35.3C27.9 35.8 27.9 36.3 27.9 36.8C27.8 36.8 27.7 36.8 27.6 36.8C27.6 35.9 27.6 34.9 27.6 34C27.7 34 27.8 34 27.9 34C27.9 34.1 27.9 34.2 27.9 34.2C28.1 34.1 28.4 34 28.6 33.9C29.1 33.8 29.4 34.1 29.5 34.6C29.6 35.3 29.5 36 29.5 36.6C29.5 36.8 29.3 36.9 29.1 36.9C29.2 36.9 29.2 36.9 29.1 36.9Z" fill="white"/>
<path d="M12.8 34.1C12.6 34.5 12.4 34.8 12.1 35.2C12 35.4 12 35.5 12.1 35.6C12.4 36 12.6 36.4 12.8 36.9C12.5 37 12.4 37 12.2 36.7C12.1 36.4 11.9 36.1 11.7 35.8C11.5 36.1 11.3 36.4 11.2 36.7C11 37 11 37 10.6 36.9C10.7 36.7 10.8 36.5 10.9 36.3C11.1 36 11.4 35.7 11.4 35.4C11.4 35.1 11.1 34.8 10.9 34.5C10.8 34.4 10.8 34.3 10.7 34.1C11 34 11.2 34.1 11.3 34.4C11.4 34.6 11.5 34.8 11.7 35.1C11.9 34.8 12 34.6 12.1 34.4C12.4 34.1 12.4 34.1 12.8 34.1Z" fill="white"/>
<path d="M21.6 36.5C21.8 36.5 22 36.6 22.2 36.6C22.5 36.6 22.7 36.5 22.8 36.3C22.9 36 22.7 35.8 22.5 35.7C22.3 35.6 22.2 35.5 22 35.4C21.6 35.2 21.5 34.9 21.6 34.5C21.7 34.1 22 34 22.4 33.9C22.5 33.9 22.7 33.9 22.8 33.9C23.1 33.9 23.1 34.1 23 34.3C22.8 34.3 22.6 34.2 22.4 34.2C22.2 34.2 22 34.3 22 34.5C21.9 34.7 22 34.9 22.2 35C22.4 35.1 22.6 35.2 22.7 35.3C23.1 35.5 23.2 35.9 23.1 36.3C23 36.8 22.7 37 22.3 37C22.2 37 22.1 37 21.9 37C21.5 36.9 21.5 36.9 21.6 36.5Z" fill="white"/>
<path d="M3.9 24.7C3.7 24.7 3.4 24.6 3.2 24.6C3 24.6 2.8 24.7 2.8 24.9C2.8 25 2.9 25.2 3 25.3C3.1 25.4 3.3 25.5 3.5 25.6C3.9 25.9 4.1 26.2 4 26.6C3.9 27 3.6 27.2 3.1 27.2C3 27.2 2.9 27.2 2.7 27.2C2.4 27.1 2.4 27.1 2.4 26.8C2.6 26.8 2.8 26.9 3 26.9C3.3 26.9 3.5 26.8 3.5 26.6C3.6 26.4 3.4 26.2 3.2 26.1C3 26 2.8 25.9 2.6 25.8C2.3 25.6 2.2 25.3 2.3 24.9C2.4 24.6 2.6 24.4 3 24.4C3.2 24.4 3.3 24.4 3.5 24.4C3.9 24.4 4 24.5 3.9 24.7Z" fill="white"/>
<path d="M6.6 34.5C6.4 34.5 6.2 34.4 6 34.4C5.8 34.4 5.6 34.5 5.5 34.7C5.4 34.9 5.6 35.1 5.7 35.2C5.9 35.3 6.1 35.4 6.2 35.5C6.6 35.7 6.7 36.1 6.6 36.5C6.6 36.8 6.3 37 5.9 37C5.8 37 5.7 37 5.5 37C5.1 36.9 5.1 36.9 5.2 36.5C5.4 36.5 5.6 36.6 5.8 36.6C6.1 36.6 6.3 36.5 6.4 36.3C6.5 36 6.3 35.9 6.1 35.7C5.9 35.6 5.7 35.5 5.6 35.4C5.3 35.2 5.1 34.9 5.2 34.5C5.3 34.2 5.5 34 5.9 34C6.1 34 6.2 34 6.4 34C6.7 34.1 6.7 34.2 6.6 34.5Z" fill="white"/>
<path d="M5.8 24.7C5.6 24.7 5.4 24.6 5.2 24.6C5 24.6 4.8 24.7 4.8 24.9C4.8 25.1 4.9 25.2 5 25.3C5.2 25.4 5.4 25.5 5.6 25.6C5.9 26 6 26.3 5.9 26.7C5.8 27.1 5.6 27.3 5.2 27.3C5 27.3 4.8 27.3 4.6 27.3C4.3 27.3 4.2 27.2 4.3 26.9C4.5 26.9 4.7 27 4.9 27C5.2 27 5.4 26.9 5.5 26.7C5.6 26.4 5.4 26.3 5.2 26.1C5 26 4.8 25.9 4.6 25.8C4.3 25.6 4.2 25.3 4.3 24.9C4.4 24.6 4.7 24.4 5 24.4C5.2 24.4 5.3 24.4 5.5 24.4C5.9 24.4 5.9 24.4 5.8 24.7Z" fill="white"/>
<path d="M15.6 28.4C15.6 28.7 15.6 28.9 15.6 29.2C15.7 29.2 15.9 29.2 16 29.2C16.1 29.2 16.1 29.3 16.2 29.4C16.1 29.5 16.1 29.6 16 29.6C15.9 29.6 15.8 29.6 15.6 29.6C15.6 29.9 15.6 30.2 15.6 30.5C15.6 30.8 15.6 31 15.6 31.3C15.6 31.8 15.7 31.9 16.2 31.8C16.3 32.1 16.3 32.1 16 32.2C15.5 32.2 15.3 32.1 15.3 31.6C15.3 31.1 15.3 30.6 15.3 30C15.3 29.9 15.3 29.8 15.3 29.7C15.1 29.7 15 29.7 14.8 29.7C14.8 29.6 14.8 29.5 14.8 29.4C15 29.4 15.1 29.4 15.3 29.4C15.3 29 15 28.5 15.6 28.4Z" fill="white"/>
<path d="M10.9 24.8C10.4 24.6 10 24.6 9.6 25C9.3 25.4 9.3 26.1 9.6 26.5C9.9 26.9 10.2 26.9 10.8 26.8C10.9 27.1 10.9 27.2 10.6 27.2C9.5 27.4 8.9 26.6 9 25.5C9.1 24.6 9.7 24.2 10.5 24.3C10.9 24.4 10.9 24.4 10.9 24.8Z" fill="white"/>
<path d="M15.1 24.7C14.9 24.7 14.8 24.7 14.6 24.7C14.6 24.6 14.6 24.5 14.6 24.4C14.8 24.4 14.9 24.4 15 24.4C15.1 24.1 14.8 23.7 15.4 23.6C15.4 23.9 15.4 24.1 15.4 24.4C15.6 24.4 15.8 24.4 15.9 24.4C15.9 24.5 15.9 24.6 15.9 24.7C15.7 24.7 15.6 24.7 15.4 24.7C15.4 25 15.4 25.3 15.4 25.6C15.4 25.8 15.4 26.1 15.4 26.3C15.4 26.8 15.5 26.9 16.1 26.8C16 27 16 27.1 15.9 27.2C15.6 27.3 15.2 27.2 15.2 27C15.1 26.8 15.1 26.6 15.1 26.4C15.1 25.8 15.1 25.3 15.1 24.7Z" fill="white"/>
<path d="M4.2 29.6C4 29.6 3.9 29.6 3.7 29.6C3.7 29.5 3.7 29.4 3.7 29.3C3.8 29.3 4 29.3 4.1 29.3C4.3 29 4 28.5 4.6 28.5C4.6 28.7 4.6 29 4.6 29.3C4.8 29.3 5 29.3 5.1 29.3C5.1 29.4 5.1 29.5 5.1 29.6C4.9 29.6 4.8 29.6 4.6 29.6C4.6 29.8 4.6 29.9 4.6 30.1C4.6 30.5 4.6 30.9 4.6 31.3C4.6 31.8 4.7 31.9 5.2 31.8C5.3 32.1 5.3 32.1 5 32.2C4.5 32.2 4.3 32.1 4.3 31.6C4.3 31.1 4.3 30.5 4.3 30C4.2 29.8 4.2 29.7 4.2 29.6Z" fill="white"/>
<path d="M20.3 34.4C20.1 34.4 20 34.4 19.8 34.4C19.8 34.3 19.8 34.2 19.8 34.1C19.9 34.1 20.1 34.1 20.2 34.1C20.4 33.9 20 33.4 20.6 33.3C20.6 33.5 20.6 33.6 20.6 33.8C20.6 34 20.6 34.1 20.9 34.1C21 34.1 21.1 34.1 21.2 34.1C21.2 34.2 21.2 34.3 21.2 34.4C21 34.4 20.9 34.4 20.7 34.4C20.7 35.1 20.7 35.7 20.7 36.4C20.7 36.6 20.8 36.7 21 36.6C21.1 36.6 21.2 36.6 21.2 36.6C21.3 36.8 21.2 36.9 21 37C20.6 37.1 20.3 36.9 20.3 36.4C20.3 35.9 20.3 35.3 20.3 34.8C20.3 34.7 20.3 34.6 20.3 34.4Z" fill="white"/>
<path d="M42.3 33.3C42.3 33.5 42.3 33.8 42.3 34.1C42.5 34.1 42.7 34.1 42.9 34.1C42.9 34.2 42.9 34.3 42.9 34.4C42.7 34.4 42.5 34.4 42.3 34.4C42.3 35 42.3 35.7 42.3 36.3C42.3 36.6 42.5 36.6 43 36.6C42.9 36.8 42.9 36.9 42.8 37C42.5 37.1 42.1 37 42 36.8C41.9 36.7 41.9 36.5 41.9 36.3C41.9 35.8 41.9 35.4 41.9 34.9C41.9 34.4 41.9 34.4 41.4 34.4C41.4 34.3 41.4 34.2 41.4 34.1C41.8 34.1 41.8 34.1 41.8 33.7C41.9 33.4 42 33.3 42.3 33.3Z" fill="white"/>
<path d="M45.8 32.8C46 32.7 46.2 32.8 46.2 33.1C46.2 34.3 46.2 35.5 46.2 36.7C46.2 37 46.1 37 45.8 37C45.8 35.5 45.8 34.2 45.8 32.8Z" fill="white"/>
<path d="M26 32.1C25.9 32.1 25.8 32.1 25.7 32.1C25.7 30.7 25.7 29.4 25.7 28C25.8 28 25.9 28 26 28C26 29.3 26 30.7 26 32.1Z" fill="white"/>
<path d="M8.10001 29.2C8.20001 29.2 8.30001 29.2 8.40001 29.2C8.40001 29.3 8.40001 29.4 8.40001 29.5C8.60001 29.2 8.90001 29 9.20001 29.2C9.20001 29.3 9.20001 29.4 9.20001 29.5C9.00001 29.6 8.70001 29.7 8.60001 29.9C8.50001 30 8.40001 30.3 8.40001 30.5C8.40001 30.9 8.40001 31.4 8.40001 31.8C8.40001 31.9 8.40001 32 8.40001 32.1C8.30001 32.1 8.20001 32.1 8.10001 32.1C8.10001 31.1 8.10001 30.2 8.10001 29.2Z" fill="white"/>
<path d="M18.5 36.9C18.5 36 18.5 35 18.5 34.1C18.6 34.1 18.7 34.1 18.8 34.1C18.8 34.2 18.8 34.3 18.9 34.4C19.1 34.1 19.4 33.9 19.7 34C19.7 34.1 19.7 34.2 19.7 34.3C19.5 34.4 19.3 34.4 19.2 34.5C19.1 34.7 19 34.9 18.9 35.2C18.9 35.7 18.9 36.1 18.9 36.6C18.9 36.9 18.7 37 18.5 36.9Z" fill="white"/>
<path d="M38.5 36.9C38.4 36.9 38.3 36.9 38.2 36.9C38.2 35.5 38.2 34.2 38.2 32.8C38.3 32.8 38.4 32.8 38.5 32.8C38.5 34.2 38.5 35.5 38.5 36.9Z" fill="white"/>
<path d="M37.4 36.9C37.3 36.9 37.2 36.9 37.1 36.9C37.1 36 37.1 35 37.1 34.1C37.2 34.1 37.3 34.1 37.4 34.1C37.4 35 37.4 36 37.4 36.9Z" fill="white"/>
<path d="M0.200005 29.3C0.500005 29.2 0.600005 29.3 0.600005 29.6C0.600005 30.4 0.600005 31.3 0.600005 32.1C0.500005 32.1 0.400005 32.1 0.300005 32.1C0.200005 31.1 0.200005 30.2 0.200005 29.3Z" fill="white"/>
<path d="M46.9 34.1C47 34.1 47.1 34.1 47.2 34.1C47.2 35 47.2 36 47.2 36.9C46.9 37 46.9 37 46.9 36.6C46.9 35.8 46.9 35.1 46.9 34.3C46.9 34.3 46.9 34.2 46.9 34.1Z" fill="white"/>
<path d="M16.6 24.4C16.7 24.4 16.8 24.4 16.9 24.4C16.9 24.5 16.9 24.6 16.9 24.6C16.9 25.4 16.9 26.1 16.9 26.9C16.9 27.2 16.8 27.2 16.5 27.2C16.6 26.3 16.6 25.3 16.6 24.4Z" fill="white"/>
<path d="M17 32.1C16.9 32.1 16.8 32.1 16.7 32.1C16.7 32 16.7 31.9 16.7 31.9C16.7 31.1 16.7 30.4 16.7 29.6C16.7 29.3 16.8 29.3 17 29.4C17 30.2 17 31.1 17 32.1Z" fill="white"/>
<path d="M11.7 27.2C11.6 27.2 11.5 27.2 11.4 27.2C11.4 26.3 11.4 25.3 11.4 24.4C11.5 24.4 11.6 24.4 11.7 24.4C11.7 25.3 11.7 26.2 11.7 27.2Z" fill="white"/>
<path d="M37.1 33.4C37.1 33.2 37.1 33.1 37.1 32.9C37.2 32.9 37.3 32.9 37.4 32.9C37.4 33.1 37.4 33.2 37.4 33.4C37.3 33.4 37.2 33.4 37.1 33.4Z" fill="white"/>
<path d="M47.3 32.9C47.3 33.1 47.3 33.3 47.3 33.5C47.2 33.5 47 33.5 47 33.4C47 33.3 47 33.1 47 33C46.9 32.9 47.1 32.9 47.3 32.9Z" fill="white"/>
<path d="M16.6 23.7C16.6 23.5 16.6 23.3 16.6 23.1C16.7 23.1 16.9 23.1 16.9 23.2C16.9 23.3 16.9 23.5 16.9 23.6C16.9 23.7 16.7 23.7 16.6 23.7Z" fill="white"/>
<path d="M0.200005 28.5C0.200005 28.3 0.200005 28.2 0.200005 28C0.300005 28 0.400005 28 0.500005 28C0.500005 28.2 0.500005 28.3 0.500005 28.5C0.400005 28.5 0.300005 28.5 0.200005 28.5Z" fill="white"/>
<path d="M11.4 23.7C11.4 23.5 11.4 23.4 11.4 23.2C11.5 23.2 11.6 23.2 11.7 23.2C11.7 23.4 11.7 23.5 11.7 23.7C11.6 23.7 11.5 23.7 11.4 23.7Z" fill="white"/>
<path d="M16.7 28.5C16.7 28.3 16.7 28.2 16.7 28C16.8 28 16.9 28 17 28C17 28.2 17 28.3 17 28.5C16.9 28.5 16.8 28.5 16.7 28.5Z" fill="white"/>
<path d="M36.4 11C36.9 11.1 37.4 11.1 37.9 11.2C38.3 11.3 38.6 11.5 38.6 12C38.6 12.3 38.7 12.7 38.6 13.1C38.5 13.7 38.1 13.9 37.6 14C37.3 14 36.8 14 36.4 14C36.4 13 36.4 12.1 36.4 11Z" fill="white"/>
</g>
<defs>
<clipPath id="clip0">
<rect width="56.3" height="38.1" fill="white"/>
</clipPath>
</defs>
</svg>
