<svg width="127" height="42" viewBox="0 0 127 42" fill="none" xmlns="http://www.w3.org/2000/svg">
<g clip-path="url(#clip0)">
<path d="M57.3199 29.2774V28.6642H57.938V29.2774H57.3199ZM57.3199 33.5693V30.0438H57.938V33.5693H57.3199ZM58.865 33.5693V30.0438H59.3285V30.5036C59.6375 30.0438 59.9465 29.8905 60.41 29.8905C60.5645 29.8905 60.8735 29.8905 61.028 30.0438C61.1825 30.0438 61.337 30.1971 61.4915 30.3503C61.646 30.5036 61.646 30.6569 61.646 30.8102C61.646 30.9635 61.646 31.1168 61.646 31.4233V33.5693H61.028V31.4233C61.028 31.1168 61.028 30.9635 61.028 30.8102C61.028 30.6569 60.8735 30.6569 60.719 30.5036C60.5645 30.5036 60.41 30.3503 60.2555 30.3503C59.9465 30.3503 59.792 30.5036 59.6375 30.6569C59.483 30.8102 59.3285 31.1168 59.3285 31.5766V33.5693H58.865V33.5693ZM63.9635 32.9562L64.118 33.416C63.9635 33.416 63.809 33.416 63.6545 33.416C63.5 33.416 63.191 33.416 63.191 33.2628C63.0365 33.2628 63.0365 33.1095 62.882 32.9562C62.882 32.8029 62.882 32.6496 62.882 32.1898V30.1971H62.4185V29.7372H62.882V29.1241L63.5 28.8175V30.0438H64.118V30.5036H63.3455V32.4963C63.3455 32.6496 63.3455 32.8029 63.3455 32.8029C63.3455 32.8029 63.3455 32.9562 63.5 32.9562H63.6545C63.809 32.9562 63.9635 32.9562 63.9635 32.9562ZM64.736 33.5693V32.9562H65.354V33.5693H64.736ZM68.5985 33.5693V30.5036H67.9805V30.0438H68.444V29.7372C68.444 29.4306 68.444 29.2774 68.444 29.2774C68.444 29.1241 68.5985 28.9708 68.753 28.9708C68.9075 28.8175 69.062 28.8175 69.3711 28.8175C69.5256 28.8175 69.68 28.8175 69.9891 28.8175V29.1241C69.8346 29.1241 69.68 29.1241 69.68 29.1241C69.5255 29.1241 69.371 29.1241 69.2165 29.2774C69.2165 29.4306 69.062 29.4306 69.062 29.7372V30.0438H69.68V30.5036H69.062V33.5693H68.5985V33.5693ZM72.7701 32.343H73.3881C73.2336 32.6496 73.0791 32.9562 72.7701 33.1095C72.4611 33.2628 72.1521 33.416 71.6886 33.416C71.2251 33.416 70.7616 33.2628 70.4526 32.9562C70.1436 32.6496 69.9891 32.1898 69.9891 31.5766C69.9891 30.9635 70.1436 30.5036 70.4526 30.1971C70.7616 29.8905 71.2251 29.7372 71.6886 29.7372C72.1521 29.7372 72.6156 29.8905 72.9246 30.1971C73.2336 30.5036 73.3881 30.9635 73.3881 31.5766V31.7299H70.7616C70.7616 32.1898 70.9161 32.343 71.0706 32.6496C71.2251 32.8029 71.5341 32.9562 71.8431 32.9562C71.9976 32.9562 72.3066 32.9562 72.4611 32.8029C72.4611 32.8029 72.6156 32.6496 72.7701 32.343ZM70.7616 31.4233H72.7701C72.7701 31.1168 72.6156 30.9635 72.6156 30.8102C72.4611 30.6569 72.1521 30.5036 71.8431 30.5036C71.5341 30.5036 71.3796 30.6569 71.0706 30.8102C70.9161 30.8102 70.7616 31.1168 70.7616 31.4233ZM76.3236 33.5693V33.1095C76.1691 33.416 75.7056 33.5693 75.3966 33.5693C75.0876 33.5693 74.7786 33.416 74.6241 33.2628C74.3151 33.1095 74.1606 32.9562 74.0061 32.6496C73.8516 32.343 73.8516 32.0365 73.8516 31.7299C73.8516 31.4233 73.8516 31.1168 74.0061 30.8102C74.1606 30.5036 74.3151 30.3503 74.4696 30.1971C74.7786 30.0438 74.9331 30.0438 75.2421 30.0438C75.3966 30.0438 75.7056 30.0438 75.8601 30.1971C76.0146 30.3503 76.1691 30.3503 76.3236 30.5036V28.8175H76.9416V33.7226H76.3236V33.5693ZM74.4696 31.7299C74.4696 32.1898 74.6241 32.4963 74.7786 32.8029C74.9331 32.9562 75.2421 33.1095 75.3966 33.1095C75.7056 33.1095 75.8601 32.9562 76.0146 32.8029C76.1691 32.6496 76.3236 32.1898 76.3236 31.8832C76.3236 31.4233 76.1691 31.1168 76.0146 30.8102C75.8601 30.6569 75.5511 30.5036 75.3966 30.5036C75.0876 30.5036 74.9331 30.6569 74.7786 30.8102C74.6241 30.9635 74.4696 31.2701 74.4696 31.7299ZM80.3406 32.343H80.9586C80.8041 32.6496 80.6496 32.9562 80.3406 33.1095C80.0316 33.2628 79.7226 33.416 79.2591 33.416C78.7956 33.416 78.3321 33.2628 78.0231 32.9562C77.7141 32.6496 77.5596 32.1898 77.5596 31.5766C77.5596 30.9635 77.7141 30.5036 78.0231 30.1971C78.3321 29.8905 78.7956 29.7372 79.2591 29.7372C79.7226 29.7372 80.1861 29.8905 80.4951 30.1971C80.8041 30.5036 80.9586 30.9635 80.9586 31.5766V31.7299H78.3321C78.3321 32.1898 78.4866 32.343 78.6411 32.6496C78.7956 32.8029 79.1046 32.9562 79.4136 32.9562C79.5681 32.9562 79.8771 32.9562 80.0316 32.8029C80.0316 32.8029 80.1861 32.6496 80.3406 32.343ZM78.3321 31.4233H80.3406C80.3406 31.1168 80.1861 30.9635 80.1861 30.8102C80.0316 30.6569 79.7226 30.5036 79.4136 30.5036C79.1046 30.5036 78.9501 30.6569 78.6411 30.8102C78.4866 30.8102 78.3321 31.1168 78.3321 31.4233ZM81.7311 33.5693V30.0438H82.1947V30.5036C82.3492 30.1971 82.5037 30.0438 82.5037 30.0438C82.6582 29.8905 82.8127 29.8905 82.8127 29.8905C82.9672 29.8905 83.2762 29.8905 83.4307 30.0438V30.6569C83.2762 30.5036 83.1217 30.5036 82.9672 30.5036C82.8127 30.5036 82.6582 30.5036 82.6582 30.6569C82.5037 30.8102 82.5037 30.8102 82.5037 30.9635C82.5037 31.1168 82.3492 31.4233 82.3492 31.7299V33.5693H81.7311ZM86.2117 33.1095C86.0572 33.2628 85.7482 33.416 85.5937 33.5693C85.4392 33.7226 85.1302 33.7226 84.9757 33.7226C84.5122 33.7226 84.3577 33.5693 84.0487 33.416C83.8942 33.2628 83.7397 32.9562 83.7397 32.6496C83.7397 32.4963 83.7397 32.343 83.8942 32.1898C84.0487 32.0365 84.0487 31.8832 84.2032 31.8832C84.3577 31.7299 84.5122 31.7299 84.6667 31.7299C84.8212 31.7299 84.9757 31.7299 85.1302 31.5766C85.5937 31.5766 85.9027 31.4233 86.2117 31.4233C86.2117 31.2701 86.2117 31.2701 86.2117 31.2701C86.2117 30.9635 86.2117 30.8102 86.0572 30.8102C85.9027 30.6569 85.7482 30.6569 85.4392 30.6569C85.1302 30.6569 84.9757 30.6569 84.8212 30.8102C84.6667 30.9635 84.5122 31.1168 84.5122 31.2701L83.8942 31.1168C83.8942 30.8102 84.0487 30.6569 84.2032 30.5036C84.3577 30.3503 84.5122 30.1971 84.6667 30.1971C84.9757 30.0438 85.1302 30.0438 85.4392 30.0438C85.7482 30.0438 86.0572 30.0438 86.2117 30.1971C86.3662 30.1971 86.5207 30.3503 86.6752 30.5036C86.8297 30.6569 86.8297 30.8102 86.8297 30.9635C86.8297 31.1168 86.8297 31.2701 86.8297 31.5766V32.343C86.8297 32.9562 86.8297 33.2628 86.8297 33.416C86.8297 33.5693 86.8297 33.7226 86.9842 33.8759H86.3662C86.3662 33.416 86.3662 33.2628 86.2117 33.1095ZM86.2117 31.7299C86.0572 31.8832 85.5937 31.8832 85.2847 31.8832C84.9757 31.8832 84.8212 31.8832 84.8212 32.0365C84.6667 32.0365 84.6667 32.1898 84.5122 32.1898C84.5122 32.343 84.3577 32.343 84.3577 32.4963C84.3577 32.6496 84.3577 32.8029 84.5122 32.9562C84.6667 33.1095 84.8212 33.1095 84.9757 33.1095C85.1302 33.1095 85.4392 33.1095 85.5937 32.9562C85.7482 32.8029 85.9027 32.6496 86.0572 32.4963C86.0572 32.343 86.2117 32.1898 86.2117 31.8832V31.7299V31.7299ZM89.1472 32.9562L89.3017 33.416C89.1472 33.416 88.9927 33.416 88.8382 33.416C88.6837 33.416 88.3747 33.416 88.3747 33.2628C88.2202 33.2628 88.2202 33.1095 88.0657 32.9562C88.0657 32.8029 88.0657 32.6496 88.0657 32.1898V30.1971H87.6022V29.7372H88.0657V29.1241L88.6837 28.8175V30.0438H89.3017V30.5036H88.6837V32.4963C88.6837 32.6496 88.6837 32.8029 88.6837 32.8029C88.6837 32.8029 88.6837 32.9562 88.8382 32.9562H88.9927C88.8382 32.9562 88.9927 32.9562 89.1472 32.9562ZM89.6107 29.2774V28.6642H90.2287V29.2774H89.6107ZM89.6107 33.5693V30.0438H90.2287V33.5693H89.6107ZM91.0012 31.7299C91.0012 31.1168 91.1557 30.6569 91.6192 30.3503C91.9282 30.0438 92.2372 29.8905 92.7007 29.8905C93.1642 29.8905 93.6277 30.0438 93.9367 30.3503C94.2457 30.6569 94.4002 31.1168 94.4002 31.7299C94.4002 32.1898 94.4002 32.4963 94.2457 32.8029C94.0912 33.1095 93.9367 33.2628 93.6277 33.416C93.3187 33.5693 93.0097 33.5693 92.7007 33.5693C92.2372 33.5693 91.7737 33.416 91.4647 33.1095C91.1557 32.8029 91.0012 32.343 91.0012 31.7299ZM91.6192 31.7299C91.6192 32.1898 91.7737 32.4963 91.9282 32.8029C92.0827 32.9562 92.3917 33.1095 92.7007 33.1095C93.0097 33.1095 93.3187 32.9562 93.4732 32.8029C93.6277 32.6496 93.7822 32.1898 93.7822 31.7299C93.7822 31.2701 93.6277 30.9635 93.4732 30.8102C93.3187 30.6569 93.0097 30.5036 92.7007 30.5036C92.3917 30.5036 92.0827 30.6569 91.9282 30.8102C91.6192 30.9635 91.6192 31.2701 91.6192 31.7299ZM95.0183 33.5693V30.0438H95.4818V30.5036C95.7908 30.0438 96.0998 29.8905 96.5633 29.8905C96.7178 29.8905 97.0268 29.8905 97.1813 30.0438C97.3358 30.0438 97.4903 30.1971 97.6448 30.3503C97.7993 30.5036 97.7993 30.6569 97.7993 30.8102C97.7993 30.9635 97.7993 31.1168 97.7993 31.4233V33.5693H97.3358V31.4233C97.3358 31.1168 97.3358 30.9635 97.3358 30.8102C97.3358 30.6569 97.1813 30.6569 97.0268 30.5036C96.8723 30.5036 96.7178 30.3503 96.5633 30.3503C96.2543 30.3503 96.0998 30.5036 95.9453 30.6569C95.7908 30.8102 95.6363 31.1168 95.6363 31.5766V33.5693H95.0183V33.5693ZM100.426 31.7299C100.426 31.1168 100.58 30.6569 101.044 30.3503C101.353 30.0438 101.662 29.8905 102.125 29.8905C102.589 29.8905 103.052 30.0438 103.361 30.3503C103.67 30.6569 103.825 31.1168 103.825 31.7299C103.825 32.1898 103.825 32.4963 103.67 32.8029C103.516 33.1095 103.361 33.2628 103.052 33.416C102.743 33.5693 102.434 33.5693 102.125 33.5693C101.662 33.5693 101.198 33.416 100.889 33.1095C100.58 32.8029 100.426 32.343 100.426 31.7299ZM101.044 31.7299C101.044 32.1898 101.198 32.4963 101.353 32.8029C101.507 32.9562 101.816 33.1095 102.125 33.1095C102.434 33.1095 102.743 32.9562 102.898 32.8029C103.052 32.6496 103.207 32.1898 103.207 31.7299C103.207 31.2701 103.052 30.9635 102.898 30.8102C102.743 30.6569 102.434 30.5036 102.125 30.5036C101.816 30.5036 101.507 30.6569 101.353 30.8102C101.198 30.9635 101.044 31.2701 101.044 31.7299ZM104.597 33.5693V30.5036H104.134V30.0438H104.597V29.7372C104.597 29.4306 104.597 29.2774 104.597 29.2774C104.597 29.1241 104.752 28.9708 104.906 28.9708C105.061 28.8175 105.215 28.8175 105.524 28.8175C105.679 28.8175 105.833 28.8175 106.142 28.8175V29.1241C105.988 29.1241 105.833 29.1241 105.833 29.1241C105.679 29.1241 105.524 29.1241 105.37 29.2774C105.37 29.4306 105.215 29.4306 105.215 29.7372V30.0438H105.833V30.5036H105.215V33.5693H104.597V33.5693ZM107.996 32.4963L108.614 32.343C108.614 32.6496 108.769 32.8029 108.923 32.9562C109.078 33.1095 109.232 33.1095 109.541 33.1095C109.85 33.1095 110.005 33.1095 110.159 32.9562C110.314 32.8029 110.314 32.6496 110.314 32.4963C110.314 32.343 110.314 32.1898 110.159 32.1898C110.005 32.1898 109.85 32.0365 109.541 32.0365C109.078 31.8832 108.769 31.8832 108.614 31.7299C108.46 31.5766 108.305 31.5766 108.151 31.4233C108.151 31.2701 108.151 31.1168 108.151 30.9635C108.151 30.8102 108.151 30.6569 108.305 30.5036C108.305 30.3503 108.46 30.1971 108.614 30.1971C108.769 30.1971 108.769 30.0438 108.923 30.0438C109.078 30.0438 109.232 30.0438 109.387 30.0438C109.696 30.0438 109.85 30.0438 110.159 30.1971C110.314 30.3503 110.468 30.3503 110.623 30.5036C110.777 30.6569 110.777 30.8102 110.777 31.1168L110.159 31.2701C110.159 31.1168 110.005 30.9635 109.85 30.8102C109.696 30.6569 109.541 30.6569 109.232 30.6569C108.923 30.6569 108.769 30.6569 108.614 30.8102C108.46 30.9635 108.46 30.9635 108.46 31.1168C108.46 31.2701 108.46 31.2701 108.46 31.2701L108.614 31.4233C108.614 31.4233 108.923 31.4233 109.078 31.5766C109.541 31.7299 109.85 31.7299 110.005 31.8832C110.159 31.8832 110.314 32.0365 110.468 32.1898C110.623 32.343 110.623 32.4963 110.623 32.6496C110.623 32.8029 110.623 33.1095 110.468 33.2628C110.314 33.416 110.159 33.5693 110.005 33.7226C109.85 33.8759 109.541 33.8759 109.232 33.8759C108.769 33.8759 108.46 33.7226 108.151 33.5693C108.305 33.1095 108.151 32.8029 107.996 32.4963ZM113.095 32.9562L113.249 33.416C113.095 33.416 112.94 33.416 112.786 33.416C112.631 33.416 112.322 33.416 112.322 33.2628C112.168 33.2628 112.168 33.1095 112.013 32.9562C112.013 32.8029 112.013 32.6496 112.013 32.1898V30.1971H111.55V29.7372H112.013V29.1241L112.631 28.8175V30.0438H113.249V30.5036H112.631V32.4963C112.631 32.6496 112.631 32.8029 112.631 32.8029C112.631 32.8029 112.631 32.9562 112.786 32.9562H112.94C112.786 32.9562 112.94 32.9562 113.095 32.9562ZM115.876 33.1095C115.721 33.2628 115.412 33.416 115.258 33.5693C115.103 33.7226 114.794 33.7226 114.64 33.7226C114.176 33.7226 114.022 33.5693 113.713 33.416C113.558 33.2628 113.404 32.9562 113.404 32.6496C113.404 32.4963 113.404 32.343 113.558 32.1898C113.713 32.0365 113.713 31.8832 113.867 31.8832C114.022 31.7299 114.176 31.7299 114.331 31.7299C114.485 31.7299 114.64 31.7299 114.794 31.5766C115.258 31.5766 115.567 31.4233 115.876 31.4233C115.876 31.2701 115.876 31.2701 115.876 31.2701C115.876 30.9635 115.876 30.8102 115.721 30.8102C115.567 30.6569 115.412 30.6569 115.103 30.6569C114.794 30.6569 114.64 30.6569 114.485 30.8102C114.331 30.9635 114.176 31.1168 114.176 31.2701L113.558 31.1168C113.558 30.8102 113.713 30.6569 113.867 30.5036C114.022 30.3503 114.176 30.1971 114.331 30.1971C114.64 30.0438 114.794 30.0438 115.103 30.0438C115.412 30.0438 115.721 30.0438 115.876 30.1971C116.03 30.1971 116.185 30.3503 116.339 30.5036C116.494 30.6569 116.494 30.8102 116.494 30.9635C116.494 31.1168 116.494 31.2701 116.494 31.5766V32.343C116.494 32.9562 116.494 33.2628 116.494 33.416C116.494 33.5693 116.494 33.7226 116.648 33.8759H116.03C116.03 33.416 115.876 33.2628 115.876 33.1095ZM115.876 31.7299C115.721 31.8832 115.258 31.8832 114.949 31.8832C114.64 31.8832 114.485 31.8832 114.485 32.0365C114.331 32.0365 114.331 32.1898 114.176 32.1898C114.176 32.343 114.022 32.343 114.022 32.4963C114.022 32.6496 114.022 32.8029 114.176 32.9562C114.331 33.1095 114.485 33.1095 114.64 33.1095C114.794 33.1095 115.103 33.1095 115.258 32.9562C115.412 32.8029 115.567 32.6496 115.721 32.4963C115.721 32.343 115.876 32.1898 115.876 31.8832V31.7299ZM117.421 33.5693V30.0438H117.884V30.5036C118.039 30.3503 118.193 30.1971 118.348 30.0438C118.502 29.8905 118.811 29.8905 118.966 29.8905C119.275 29.8905 119.429 29.8905 119.584 30.0438C119.738 30.1971 119.893 30.3503 119.893 30.5036C120.202 30.0438 120.511 29.8905 120.974 29.8905C121.283 29.8905 121.592 30.0438 121.747 30.1971C121.901 30.3503 122.056 30.6569 122.056 31.1168V33.5693H121.438V31.4233C121.438 31.1168 121.438 30.9635 121.438 30.9635C121.438 30.8102 121.283 30.8102 121.283 30.6569C121.129 30.6569 121.129 30.5036 120.974 30.5036C120.665 30.5036 120.511 30.6569 120.356 30.8102C120.202 30.9635 120.047 31.2701 120.047 31.5766V33.5693H119.429V31.2701C119.429 30.9635 119.429 30.8102 119.275 30.6569C119.12 30.5036 118.966 30.5036 118.811 30.5036C118.657 30.5036 118.502 30.5036 118.348 30.6569C118.193 30.8102 118.039 30.8102 118.039 31.1168C118.039 31.2701 117.884 31.5766 117.884 31.8832V33.7226H117.421V33.5693ZM123.137 34.7956V29.8905H123.601V30.3503C123.755 30.1971 123.91 30.0438 124.064 29.8905C124.219 29.7372 124.373 29.7372 124.682 29.7372C124.991 29.7372 125.3 29.8905 125.455 30.0438C125.764 30.1971 125.919 30.3503 125.919 30.6569C126.073 30.9635 126.073 31.2701 126.073 31.5766C126.073 31.8832 126.073 32.1898 125.919 32.4963C125.764 32.8029 125.609 32.9562 125.3 33.1095C124.991 33.2628 124.837 33.416 124.528 33.416C124.373 33.416 124.219 33.416 124.064 33.2628C123.91 33.1095 123.755 33.1095 123.601 32.9562V34.6423H123.137V34.7956ZM123.601 31.7299C123.601 32.1898 123.755 32.4963 123.91 32.8029C124.064 32.9562 124.373 33.1095 124.528 33.1095C124.837 33.1095 124.991 32.9562 125.146 32.8029C125.3 32.6496 125.455 32.1898 125.455 31.7299C125.455 31.2701 125.3 30.9635 125.146 30.6569C124.991 30.5036 124.682 30.3503 124.528 30.3503C124.219 30.3503 124.064 30.5036 123.91 30.6569C123.755 30.9635 123.601 31.2701 123.601 31.7299ZM59.6375 41.0803V40.6204C59.483 40.927 59.0195 41.0803 58.7105 41.0803C58.4015 41.0803 58.0925 40.927 57.938 40.7737C57.629 40.6204 57.4745 40.4671 57.3199 40.1606C57.1654 40.0073 57.1655 39.7007 57.1655 39.3941C57.1655 39.0876 57.1654 38.781 57.3199 38.4744C57.4745 38.1679 57.629 38.0146 57.7835 37.8613C58.0925 37.708 58.247 37.708 58.556 37.708C58.7105 37.708 59.0195 37.708 59.174 37.8613C59.3285 38.0146 59.483 38.0146 59.6375 38.1679V36.4817H60.2555V41.3868H59.6375V41.0803ZM57.7835 39.3941C57.7835 39.854 57.938 40.1606 58.0925 40.4671C58.247 40.6204 58.556 40.7737 58.7105 40.7737C59.0195 40.7737 59.174 40.6204 59.3285 40.4671C59.483 40.3138 59.6375 39.854 59.6375 39.5474C59.6375 39.0876 59.483 38.781 59.3285 38.4744C59.174 38.3211 58.865 38.1679 58.7105 38.1679C58.4015 38.1679 58.247 38.3211 58.0925 38.4744C57.938 38.4744 57.7835 38.781 57.7835 39.3941ZM63.6545 40.0073H64.2725C64.118 40.3139 63.9635 40.6204 63.6545 40.7737C63.3455 40.927 63.0365 41.0803 62.573 41.0803C62.1095 41.0803 61.646 40.927 61.337 40.6204C61.028 40.3138 60.8735 39.854 60.8735 39.2409C60.8735 38.6277 61.028 38.1679 61.337 37.8613C61.646 37.5547 62.1095 37.4014 62.573 37.4014C63.0365 37.4014 63.5 37.5547 63.809 37.8613C64.118 38.1679 64.2725 38.6277 64.2725 39.2409V39.3941H61.646C61.646 39.854 61.8005 40.0073 61.955 40.3138C62.1095 40.4671 62.4185 40.6204 62.7275 40.6204C62.882 40.6204 63.191 40.6204 63.3455 40.4671C63.3455 40.3138 63.5 40.1606 63.6545 40.0073ZM61.646 38.9343H63.6545C63.6545 38.6277 63.5 38.4744 63.5 38.3211C63.3455 38.1679 63.0365 38.0146 62.7275 38.0146C62.4185 38.0146 62.264 38.1679 61.955 38.3211C61.8005 38.4744 61.646 38.6277 61.646 38.9343ZM67.3625 40.6204C67.208 40.7737 66.899 40.927 66.7445 41.0803C66.59 41.2336 66.281 41.2336 66.1265 41.2336C65.663 41.2336 65.5085 41.0803 65.1995 40.927C65.045 40.7737 64.8905 40.4671 64.8905 40.1606C64.8905 40.0073 64.8905 39.854 65.045 39.7007C65.1995 39.5474 65.1995 39.3941 65.354 39.3941C65.5085 39.2409 65.663 39.2409 65.8175 39.2409C65.972 39.2409 66.1265 39.2409 66.281 39.0876C66.7445 39.0876 67.0535 38.9343 67.3625 38.9343C67.3625 38.781 67.3625 38.781 67.3625 38.781C67.3625 38.4744 67.3625 38.3211 67.208 38.3211C67.0535 38.1679 66.899 38.1679 66.59 38.1679C66.281 38.1679 66.1265 38.1679 65.972 38.3211C65.8175 38.4744 65.663 38.6277 65.663 38.781L64.8905 38.6277C64.8905 38.3211 65.045 38.1679 65.1995 38.0146C65.354 37.8613 65.5085 37.708 65.663 37.708C65.972 37.5547 66.1265 37.5547 66.4355 37.5547C66.7445 37.5547 67.0535 37.5547 67.208 37.708C67.3625 37.708 67.517 37.8613 67.6715 38.0146C67.826 38.1679 67.826 38.3211 67.826 38.4744C67.826 38.6277 67.826 38.781 67.826 39.0876V39.854C67.826 40.4671 67.826 40.7737 67.826 40.927C67.826 41.0803 67.826 41.2336 67.9805 41.3868H67.3625C67.3625 40.927 67.3625 40.7737 67.3625 40.6204ZM67.208 39.2409C67.0535 39.3941 66.59 39.3941 66.281 39.3941C65.972 39.3941 65.8175 39.3941 65.8175 39.5474C65.663 39.5474 65.663 39.7007 65.5085 39.7007C65.5085 39.854 65.354 39.854 65.354 40.0073C65.354 40.1606 65.354 40.3138 65.5085 40.4671C65.663 40.6204 65.8175 40.6204 65.972 40.6204C66.1265 40.6204 66.4355 40.6204 66.59 40.4671C66.7445 40.3138 66.899 40.1606 67.0535 40.0073C67.0535 39.854 67.208 39.7007 67.208 39.3941V39.2409V39.2409ZM68.753 41.0803V36.1752H69.3711V41.0803H68.753ZM72.7701 40.0073H73.3881C73.2336 40.3139 73.0791 40.6204 72.7701 40.7737C72.4611 40.927 72.1521 41.0803 71.6886 41.0803C71.2251 41.0803 70.7616 40.927 70.4526 40.6204C70.1436 40.3138 69.9891 39.854 69.9891 39.2409C69.9891 38.6277 70.1436 38.1679 70.4526 37.8613C70.7616 37.5547 71.2251 37.4014 71.6886 37.4014C72.1521 37.4014 72.6156 37.5547 72.9246 37.8613C73.2336 38.1679 73.3881 38.6277 73.3881 39.2409V39.3941H70.7616C70.7616 39.854 70.9161 40.0073 71.0706 40.3138C71.2251 40.4671 71.5341 40.6204 71.8431 40.6204C71.9976 40.6204 72.3066 40.6204 72.4611 40.4671C72.4611 40.3138 72.6156 40.1606 72.7701 40.0073ZM70.7616 38.9343H72.7701C72.7701 38.6277 72.6156 38.4744 72.6156 38.3211C72.4611 38.1679 72.1521 38.0146 71.8431 38.0146C71.5341 38.0146 71.3796 38.1679 71.0706 38.3211C70.9161 38.4744 70.7616 38.6277 70.7616 38.9343ZM74.1606 41.0803V37.5547H74.6241V38.0146C74.7786 37.708 74.9331 37.5547 74.9331 37.5547C75.0876 37.4014 75.2421 37.4014 75.2421 37.4014C75.3966 37.4014 75.7056 37.4014 75.8601 37.5547L75.7056 38.1679C75.5511 38.0146 75.3966 38.0146 75.2421 38.0146C75.0876 38.0146 74.9331 38.0146 74.9331 38.1679C74.7786 38.3211 74.7786 38.3211 74.7786 38.4744C74.7786 38.6277 74.6241 38.9343 74.6241 39.2409V41.0803H74.1606V41.0803ZM76.6326 36.9416V36.1752H77.2506V36.7883C77.2506 37.0949 77.2506 37.2482 77.0961 37.4014C76.9416 37.5547 76.7871 37.708 76.6326 37.8613L76.4781 37.5547C76.6326 37.5547 76.6326 37.4014 76.7871 37.4014C76.7871 37.2482 76.9416 37.0949 76.9416 36.9416H76.6326V36.9416ZM77.7141 40.0073L78.3321 39.854C78.3321 40.1606 78.4866 40.3138 78.6411 40.4671C78.7956 40.6204 78.9501 40.6204 79.2591 40.6204C79.5681 40.6204 79.7226 40.6204 79.8771 40.4671C80.0316 40.3138 80.0316 40.1606 80.0316 40.0073C80.0316 39.854 80.0316 39.7007 79.8771 39.7007C79.7226 39.7007 79.5681 39.5474 79.2591 39.5474C78.7956 39.3941 78.4866 39.3941 78.3321 39.2409C78.1776 39.0876 78.0231 39.0876 77.8686 38.9343C77.7141 38.781 77.7141 38.6277 77.7141 38.4744C77.7141 38.3211 77.7141 38.1679 77.8686 38.0146C77.8686 37.8613 78.0231 37.708 78.1776 37.708C78.3321 37.708 78.3321 37.5547 78.4866 37.5547C78.6411 37.5547 78.7956 37.5547 78.9501 37.5547C79.2591 37.5547 79.4136 37.5547 79.7226 37.708C79.8771 37.8613 80.0316 37.8613 80.1861 38.0146C80.3406 38.1679 80.3406 38.3211 80.3406 38.6277L79.7226 38.781C79.7226 38.6277 79.5681 38.4744 79.4136 38.3211C79.2591 38.1679 79.1046 38.1679 78.7956 38.1679C78.4866 38.1679 78.3321 38.1679 78.1776 38.3211C78.0231 38.4744 78.0231 38.4744 78.0231 38.6277C78.0231 38.781 78.0231 38.781 78.0231 38.781L78.1776 38.9343C78.1776 38.9343 78.4866 38.9343 78.6411 39.0876C79.1046 39.2409 79.4136 39.2409 79.5681 39.3941C79.7226 39.3941 79.8771 39.5474 80.0316 39.7007C80.1861 39.854 80.1861 40.0073 80.1861 40.1606C80.1861 40.3139 80.1861 40.6204 80.0316 40.7737C79.8771 40.927 79.7226 41.0803 79.5681 41.2336C79.4136 41.3868 79.1046 41.3868 78.7956 41.3868C78.3321 41.3868 78.0231 41.2336 77.7141 41.0803C78.0231 40.6204 77.8686 40.4671 77.7141 40.0073ZM85.5937 40.6204C85.4392 40.7737 85.1302 40.927 84.9757 41.0803C84.8212 41.2336 84.5122 41.2336 84.3577 41.2336C83.8942 41.2336 83.7397 41.0803 83.4307 40.927C83.2762 40.7737 83.1217 40.4671 83.1217 40.1606C83.1217 40.0073 83.1217 39.854 83.2762 39.7007C83.4307 39.5474 83.4307 39.3941 83.5852 39.3941C83.7397 39.2409 83.8942 39.2409 84.0487 39.2409C84.2032 39.2409 84.3577 39.2409 84.5122 39.0876C84.9757 39.0876 85.2847 38.9343 85.5937 38.9343C85.5937 38.781 85.5937 38.781 85.5937 38.781C85.5937 38.4744 85.5937 38.3211 85.4392 38.3211C85.2847 38.1679 85.1302 38.1679 84.8212 38.1679C84.5122 38.1679 84.3577 38.1679 84.2032 38.3211C84.0487 38.4744 83.8942 38.6277 83.8942 38.781L83.2762 38.6277C83.2762 38.3211 83.4307 38.1679 83.5852 38.0146C83.7397 37.8613 83.8942 37.708 84.0487 37.708C84.3577 37.5547 84.5122 37.5547 84.8212 37.5547C85.1302 37.5547 85.4392 37.5547 85.5937 37.708C85.7482 37.708 85.9027 37.8613 86.0572 38.0146C86.2117 38.1679 86.2117 38.3211 86.2117 38.4744C86.2117 38.6277 86.2117 38.781 86.2117 39.0876V39.854C86.2117 40.4671 86.2117 40.7737 86.2117 40.927C86.2117 41.0803 86.2117 41.2336 86.3662 41.3868H85.7482C85.7482 40.927 85.7482 40.7737 85.5937 40.6204ZM85.5937 39.2409C85.4392 39.3941 84.9757 39.3941 84.6667 39.3941C84.3577 39.3941 84.2032 39.3941 84.2032 39.5474C84.0487 39.5474 84.0487 39.7007 83.8942 39.7007C83.8942 39.854 83.7397 39.854 83.7397 40.0073C83.7397 40.1606 83.7397 40.3138 83.8942 40.4671C84.0487 40.6204 84.2032 40.6204 84.3577 40.6204C84.5122 40.6204 84.8212 40.6204 84.9757 40.4671C85.1302 40.3138 85.2847 40.1606 85.4392 40.0073C85.4392 39.854 85.5937 39.7007 85.5937 39.3941V39.2409V39.2409ZM86.8297 40.0073L87.4477 39.854C87.4477 40.1606 87.6022 40.3138 87.7567 40.4671C87.9112 40.6204 88.0657 40.6204 88.3747 40.6204C88.6837 40.6204 88.8382 40.6204 88.9927 40.4671C89.1472 40.3138 89.1472 40.1606 89.1472 40.0073C89.1472 39.854 89.1472 39.7007 88.9927 39.7007C88.8382 39.7007 88.6837 39.5474 88.3747 39.5474C87.9112 39.3941 87.6022 39.3941 87.4477 39.2409C87.2932 39.0876 87.1387 39.0876 86.9842 38.9343C86.8297 38.781 86.8297 38.6277 86.8297 38.4744C86.8297 38.3211 86.8297 38.1679 86.9842 38.0146C86.9842 37.8613 87.1387 37.708 87.2932 37.708C87.4477 37.708 87.4477 37.5547 87.6022 37.5547C87.7567 37.5547 87.9112 37.5547 88.0657 37.5547C88.3747 37.5547 88.5292 37.5547 88.8382 37.708C88.9927 37.8613 89.1472 37.8613 89.3017 38.0146C89.4562 38.1679 89.4562 38.3211 89.4562 38.6277L88.8382 38.781C88.8382 38.6277 88.6837 38.4744 88.5292 38.3211C88.3747 38.1679 88.2202 38.1679 87.9112 38.1679C87.6022 38.1679 87.4477 38.1679 87.2932 38.3211C87.1387 38.4744 87.1387 38.4744 87.1387 38.6277C87.1387 38.781 87.1387 38.781 87.1387 38.781L87.2932 38.9343C87.2932 38.9343 87.6022 38.9343 87.7567 39.0876C88.2202 39.2409 88.5292 39.2409 88.6837 39.3941C88.8382 39.3941 88.9927 39.5474 89.1472 39.7007C89.3017 39.854 89.3017 40.0073 89.3017 40.1606C89.3017 40.3139 89.3017 40.6204 89.1472 40.7737C88.9927 40.927 88.8382 41.0803 88.6837 41.2336C88.5292 41.3868 88.2202 41.3868 87.9112 41.3868C87.4477 41.3868 87.1387 41.2336 86.8297 41.0803C87.1387 40.6204 86.9842 40.4671 86.8297 40.0073Z" fill="white"/>
<path d="M90.3832 40.0073L91.0012 39.854C91.0012 40.1606 91.1557 40.3139 91.3102 40.4671C91.4647 40.6204 91.6192 40.6204 91.9282 40.6204C92.2372 40.6204 92.3917 40.6204 92.5462 40.4671C92.7007 40.3139 92.7007 40.1606 92.7007 40.0073C92.7007 39.854 92.7007 39.7007 92.5462 39.7007C92.3917 39.7007 92.2372 39.5474 91.9282 39.5474C91.4647 39.3941 91.1557 39.3941 91.0012 39.2409C90.8467 39.0876 90.6922 39.0876 90.5377 38.9343C90.3832 38.781 90.3832 38.6277 90.3832 38.4744C90.3832 38.3212 90.3832 38.1679 90.5377 38.0146C90.5377 37.8613 90.6922 37.708 90.8467 37.708C91.0012 37.708 91.0012 37.5547 91.1557 37.5547C91.3102 37.5547 91.4647 37.5547 91.6192 37.5547C91.9282 37.5547 92.0827 37.5547 92.3917 37.708C92.5462 37.8613 92.7007 37.8613 92.8552 38.0146C93.0097 38.1679 93.0097 38.3212 93.0097 38.6277L92.3917 38.781C92.3917 38.6277 92.2372 38.4744 92.0827 38.3212C91.9282 38.1679 91.7737 38.1679 91.4647 38.1679C91.1557 38.1679 91.0012 38.1679 90.8467 38.3212C90.6922 38.4744 90.6922 38.4744 90.6922 38.6277C90.6922 38.781 90.6922 38.781 90.6922 38.781L90.8467 38.9343C90.8467 38.9343 91.1557 38.9343 91.3102 39.0876C91.7737 39.2409 92.0827 39.2409 92.2372 39.3941C92.3917 39.3941 92.5462 39.5474 92.7007 39.7007C92.8552 39.854 92.8552 40.0073 92.8552 40.1606C92.8552 40.3139 92.8552 40.6204 92.7007 40.7737C92.5462 40.927 92.3917 41.0803 92.2372 41.2336C92.0827 41.3868 91.7737 41.3868 91.4647 41.3868C91.0012 41.3868 90.6922 41.2336 90.3832 41.0803C90.5377 40.6204 90.3832 40.4671 90.3832 40.0073ZM93.7822 39.3941C93.7822 38.781 93.9367 38.3212 94.4002 38.0146C94.7092 37.708 95.0183 37.5547 95.4818 37.5547C95.9453 37.5547 96.4088 37.708 96.7178 38.0146C97.0268 38.3212 97.1813 38.781 97.1813 39.3941C97.1813 39.854 97.1813 40.1606 97.0268 40.4671C96.8723 40.7737 96.7178 40.927 96.4088 41.0803C96.0998 41.2336 95.7908 41.2336 95.4818 41.2336C95.0183 41.2336 94.5547 41.0803 94.2457 40.7737C93.9367 40.3139 93.7822 39.854 93.7822 39.3941ZM94.4002 39.3941C94.4002 39.854 94.5547 40.1606 94.7092 40.4671C94.8638 40.6204 95.1728 40.7737 95.4818 40.7737C95.7908 40.7737 96.0998 40.6204 96.2543 40.4671C96.4088 40.3139 96.5633 39.854 96.5633 39.3941C96.5633 38.9343 96.4088 38.6277 96.2543 38.4744C96.0998 38.3212 95.7908 38.1679 95.4818 38.1679C95.1728 38.1679 94.8638 38.3212 94.7092 38.4744C94.4002 38.4744 94.4002 38.9343 94.4002 39.3941ZM100.117 39.854L100.735 40.0073C100.735 40.4671 100.58 40.7737 100.271 40.927C99.9623 41.0803 99.6533 41.2336 99.3443 41.2336C98.8808 41.2336 98.4173 41.0803 98.1083 40.7737C97.7993 40.4671 97.6448 40.0073 97.6448 39.3941C97.6448 39.0876 97.6448 38.6277 97.7993 38.3212C97.9538 38.0146 98.1083 37.8613 98.4173 37.708C98.7263 37.5547 99.0353 37.5547 99.1898 37.5547C99.4988 37.5547 99.9623 37.708 100.117 37.8613C100.426 38.0146 100.58 38.3212 100.58 38.6277L99.9623 38.781C99.9623 38.4744 99.8078 38.3212 99.6533 38.3212C99.4988 38.1679 99.3443 38.1679 99.1898 38.1679C98.8808 38.1679 98.5718 38.3212 98.4173 38.4744C98.2628 38.6277 98.1083 39.0876 98.1083 39.5474C98.1083 40.0073 98.2628 40.3139 98.4173 40.6204C98.5718 40.7737 98.8808 40.927 99.1898 40.927C99.4988 40.927 99.6533 40.927 99.8078 40.7737C99.9623 40.3139 100.117 40.1606 100.117 39.854ZM101.198 36.9416V36.3285H101.816V36.9416H101.198ZM101.198 41.0803V37.5547H101.816V41.0803H101.198ZM105.061 40.6204C104.906 40.7737 104.597 40.927 104.443 41.0803C104.288 41.2336 103.979 41.2336 103.825 41.2336C103.361 41.2336 103.207 41.0803 102.898 40.927C102.743 40.7737 102.589 40.4671 102.589 40.1606C102.589 40.0073 102.589 39.854 102.743 39.7007C102.898 39.5474 102.898 39.3941 103.052 39.3941C103.207 39.2409 103.361 39.2409 103.516 39.2409C103.67 39.2409 103.825 39.2409 103.979 39.0876C104.443 39.0876 104.752 38.9343 105.061 38.9343C105.061 38.781 105.061 38.781 105.061 38.781C105.061 38.4744 105.061 38.3212 104.906 38.3212C104.752 38.1679 104.597 38.1679 104.288 38.1679C103.979 38.1679 103.825 38.1679 103.67 38.3212C103.516 38.4744 103.361 38.6277 103.361 38.781L102.743 38.6277C102.743 38.3212 102.898 38.1679 103.052 38.0146C103.207 37.8613 103.361 37.708 103.516 37.708C103.825 37.5547 103.979 37.5547 104.288 37.5547C104.597 37.5547 104.906 37.5547 105.061 37.708C105.215 37.708 105.37 37.8613 105.524 38.0146C105.679 38.1679 105.679 38.3212 105.679 38.4744C105.679 38.6277 105.679 38.781 105.679 39.0876V39.854C105.679 40.4671 105.679 40.7737 105.679 40.927C105.679 41.0803 105.679 41.2336 105.833 41.3868H105.215C105.061 40.927 105.061 40.7737 105.061 40.6204ZM104.906 39.2409C104.752 39.3941 104.288 39.3941 103.979 39.3941C103.67 39.3941 103.516 39.3941 103.516 39.5474C103.361 39.5474 103.361 39.7007 103.207 39.7007C103.207 39.854 103.052 39.854 103.052 40.0073C103.052 40.1606 103.052 40.3139 103.207 40.4671C103.361 40.6204 103.516 40.6204 103.67 40.6204C103.825 40.6204 104.134 40.6204 104.288 40.4671C104.443 40.3139 104.597 40.1606 104.752 40.0073C104.752 39.854 104.906 39.7007 104.906 39.3941V39.2409ZM107.842 40.6204L107.996 41.0803C107.842 41.0803 107.687 41.0803 107.533 41.0803C107.378 41.0803 107.069 41.0803 107.069 40.927C106.915 40.927 106.915 40.7737 106.76 40.6204C106.76 40.4671 106.76 40.3139 106.76 39.854V37.8613H106.297V37.4014H106.606V36.4817L107.224 36.1752V37.4014H107.842V37.8613H107.224V39.854C107.224 40.0073 107.224 40.1606 107.224 40.1606C107.224 40.1606 107.224 40.3139 107.378 40.3139H107.533C107.687 40.6204 107.687 40.6204 107.842 40.6204ZM108.46 36.9416V36.3285H109.078V36.9416H108.46ZM108.46 41.0803V37.5547H109.078V41.0803H108.46ZM109.696 39.3941C109.696 38.781 109.85 38.3212 110.314 38.0146C110.623 37.708 110.932 37.5547 111.395 37.5547C111.859 37.5547 112.322 37.708 112.631 38.0146C112.94 38.3212 113.095 38.781 113.095 39.3941C113.095 39.854 113.095 40.1606 112.94 40.4671C112.786 40.7737 112.631 40.927 112.322 41.0803C112.013 41.2336 111.704 41.2336 111.395 41.2336C110.932 41.2336 110.468 41.0803 110.159 40.7737C109.85 40.3139 109.696 39.854 109.696 39.3941ZM110.314 39.3941C110.314 39.854 110.468 40.1606 110.623 40.4671C110.777 40.6204 111.086 40.7737 111.395 40.7737C111.704 40.7737 112.013 40.6204 112.168 40.4671C112.322 40.3139 112.477 39.854 112.477 39.3941C112.477 38.9343 112.322 38.6277 112.168 38.4744C112.013 38.3212 111.704 38.1679 111.395 38.1679C111.086 38.1679 110.777 38.3212 110.623 38.4744C110.468 38.4744 110.314 38.9343 110.314 39.3941ZM113.713 41.0803V37.5547H114.331V38.0146C114.64 37.5547 114.949 37.4014 115.412 37.4014C115.567 37.4014 115.876 37.4014 116.03 37.5547C116.185 37.5547 116.339 37.708 116.494 37.8613C116.648 38.0146 116.648 38.1679 116.648 38.3212C116.648 38.4744 116.648 38.6277 116.648 38.9343V41.0803H116.03V38.9343C116.03 38.6277 116.03 38.4744 116.03 38.3212C116.03 38.1679 115.876 38.1679 115.721 38.0146C115.567 38.0146 115.412 37.8613 115.258 37.8613C114.949 37.8613 114.794 38.0146 114.64 38.1679C114.485 38.3212 114.331 38.6277 114.331 39.0876V41.0803H113.713V41.0803ZM117.266 40.0073L117.884 39.854C117.884 40.1606 118.039 40.3139 118.193 40.4671C118.348 40.6204 118.502 40.6204 118.811 40.6204C119.12 40.6204 119.275 40.6204 119.429 40.4671C119.584 40.3139 119.584 40.1606 119.584 40.0073C119.584 39.854 119.584 39.7007 119.429 39.7007C119.275 39.7007 119.12 39.5474 118.811 39.5474C118.348 39.3941 118.039 39.3941 117.884 39.2409C117.73 39.0876 117.575 39.0876 117.421 38.9343C117.421 38.781 117.421 38.6277 117.421 38.4744C117.421 38.3212 117.421 38.1679 117.575 38.0146C117.575 37.8613 117.73 37.708 117.884 37.708C118.039 37.708 118.039 37.5547 118.193 37.5547C118.348 37.5547 118.502 37.5547 118.657 37.5547C118.966 37.5547 119.12 37.5547 119.429 37.708C119.584 37.8613 119.738 37.8613 119.893 38.0146C120.047 38.1679 120.047 38.3212 120.047 38.6277L119.429 38.781C119.429 38.6277 119.275 38.4744 119.12 38.3212C118.966 38.1679 118.811 38.1679 118.502 38.1679C118.193 38.1679 118.039 38.1679 117.884 38.3212C117.73 38.4744 117.73 38.4744 117.73 38.6277C117.73 38.781 117.73 38.781 117.73 38.781L117.884 38.9343C117.884 38.9343 118.193 38.9343 118.348 39.0876C118.811 39.2409 119.12 39.2409 119.275 39.3941C119.429 39.3941 119.584 39.5474 119.738 39.7007C119.893 39.854 119.893 40.0073 119.893 40.1606C119.893 40.3139 119.893 40.6204 119.738 40.7737C119.584 40.927 119.429 41.0803 119.275 41.2336C119.12 41.3868 118.811 41.3868 118.502 41.3868C118.039 41.3868 117.73 41.2336 117.421 41.0803C117.575 40.6204 117.421 40.4671 117.266 40.0073Z" fill="white"/>
<path d="M64.5815 13.3358C64.5815 12.5693 64.5815 11.9562 64.5815 11.1898C64.5815 10.5766 64.5815 9.9635 64.5815 9.50365C64.5815 9.19708 64.427 9.19708 64.118 9.19708C63.809 9.35037 63.5 9.50365 63.191 9.65694C62.882 9.81022 62.4185 9.9635 61.955 10.1168C61.4915 10.2701 61.028 10.4234 60.5645 10.5766C60.101 10.7299 59.6375 10.8832 59.3285 11.0365C59.3285 11.0365 59.174 11.1898 59.174 11.3431C59.174 11.4964 59.174 11.6496 59.174 11.6496C59.174 11.8029 59.174 11.8029 59.3285 11.9562L59.792 12.2628C59.9465 12.4161 60.101 12.5693 60.2555 12.7226C60.41 12.8759 60.41 13.0292 60.41 13.3358C60.41 13.6423 60.41 13.9489 60.41 14.4088V19.1606C60.41 19.7737 60.41 20.2336 60.41 20.5401C60.41 20.8467 60.2555 21.1533 60.2555 21.3066C60.101 21.4599 60.101 21.6131 59.9465 21.6131C59.792 21.6131 59.6375 21.7664 59.3285 21.7664H58.7105C58.556 21.7664 58.556 21.9197 58.556 22.073C58.556 22.2263 58.556 22.3796 58.556 22.5328C58.556 22.6861 58.7105 22.8394 58.7105 22.8394C59.174 22.8394 59.792 22.8394 60.5645 22.8394C61.1825 22.8394 61.955 22.8394 62.573 22.8394C63.3455 22.8394 63.9635 22.8394 64.5815 22.8394C65.1995 22.8394 65.8175 22.8394 66.4355 22.8394C66.59 22.8394 66.59 22.6861 66.59 22.5328C66.59 22.3796 66.59 22.2263 66.59 22.073C66.59 21.9197 66.4355 21.7664 66.4355 21.7664H65.8175C65.5085 21.7664 65.354 21.7664 65.1995 21.6131C65.045 21.6131 64.8905 21.4599 64.8905 21.3066C64.736 21.1533 64.736 20.8467 64.736 20.5401C64.736 20.2336 64.736 19.7737 64.736 19.1606V13.3358H64.5815ZM120.82 21.4599C120.82 21.3066 120.82 21.1533 120.82 21.1533C120.82 21 120.665 20.8467 120.511 20.8467C120.202 21 120.047 21.1533 119.893 21.1533C119.738 21.1533 119.584 21.3066 119.275 21.3066C119.12 21.3066 118.811 21.3066 118.657 21.1533C118.348 21 118.193 20.6934 118.039 20.3869C117.884 19.927 117.884 19.4672 117.884 18.7007L118.039 14.4088C118.039 13.3358 117.884 12.4161 117.575 11.8029C117.266 11.1898 116.803 10.5766 116.185 10.2701C115.567 9.9635 114.794 9.81022 113.867 9.81022C113.095 9.81022 112.322 9.9635 111.704 10.1168C111.086 10.2701 110.468 10.5766 109.85 10.8832C109.232 11.1898 108.769 11.4964 108.46 11.8029C108.151 11.8029 107.842 11.9562 107.687 12.2628C107.533 12.5693 107.224 12.8759 107.069 13.1825C106.915 13.4891 106.915 13.7956 106.915 14.1022C106.915 14.2555 106.915 14.562 107.069 14.7153C107.224 14.8686 107.378 14.8686 107.687 15.0219C107.842 15.0219 108.151 15.0219 108.46 14.8686C108.769 14.8686 109.078 14.7153 109.387 14.562C109.696 14.4088 109.85 14.4088 110.005 14.2555C110.159 14.1022 110.314 13.9489 110.314 13.7956C110.468 13.6423 110.468 13.4891 110.468 13.1825C110.468 12.7226 110.623 12.4161 110.777 12.1095C110.932 11.8029 111.086 11.6496 111.395 11.4964C111.55 11.3431 111.859 11.3431 112.168 11.3431C112.477 11.3431 112.786 11.4964 113.095 11.6496C113.404 11.8029 113.558 12.1095 113.713 12.2628C113.867 12.5693 114.022 12.8759 114.022 13.1825C114.022 13.4891 114.176 13.7956 114.176 14.1022C114.176 14.2555 114.176 14.4088 114.176 14.7153C114.176 14.8686 114.176 15.0219 114.176 15.1752C114.176 15.3285 114.176 15.4818 114.022 15.4818C113.867 15.635 113.713 15.635 113.404 15.7883C112.94 15.9416 112.477 16.0949 112.013 16.2482C111.55 16.4015 110.932 16.5547 110.314 16.708C109.078 17.0146 108.305 17.4745 107.687 18.0876C107.224 18.5474 106.915 19.3139 106.915 20.0803C106.915 20.6934 107.069 21.1533 107.224 21.6131C107.378 22.073 107.687 22.3796 107.996 22.6861C108.305 22.9927 108.769 23.146 109.078 23.2993C109.541 23.4526 110.005 23.4526 110.468 23.4526C110.932 23.4526 111.241 23.4526 111.55 23.2993C111.859 23.146 112.168 22.9927 112.477 22.8394C112.786 22.6861 112.94 22.5328 113.249 22.3796C113.404 22.2263 113.558 22.2263 113.713 22.073C113.867 22.073 113.867 21.9197 114.022 21.9197C114.176 21.9197 114.176 21.9197 114.331 21.9197C114.331 21.9197 114.485 22.073 114.64 22.073C114.949 22.3796 115.258 22.5328 115.412 22.6861C115.721 22.8394 116.03 22.9927 116.339 22.9927C116.648 23.146 116.957 23.146 117.421 23.146C117.884 23.146 118.348 23.146 118.657 22.9927C119.12 22.8394 119.429 22.6861 119.738 22.5328C120.047 22.3796 120.356 22.2263 120.511 21.9197C120.511 21.9197 120.665 21.7664 120.82 21.4599ZM62.573 2.45255C62.1095 2.45255 61.8005 2.60584 61.337 2.75912C61.028 2.91241 60.719 3.21898 60.41 3.52555C60.2555 3.83212 60.2555 4.29197 60.2555 4.75182C60.2555 5.21168 60.41 5.51825 60.5645 5.9781C60.719 6.28467 61.028 6.59124 61.337 6.74453C61.646 6.89781 62.1095 7.0511 62.573 7.0511C63.0365 7.0511 63.3455 6.89781 63.809 6.74453C64.118 6.59124 64.427 6.28467 64.736 5.9781C64.736 5.67153 64.8905 5.21168 64.8905 4.75182C64.8905 4.29197 64.736 3.9854 64.5815 3.52555C64.427 3.21898 64.118 2.91241 63.809 2.75912C63.5 2.60584 63.0365 2.45255 62.573 2.45255ZM77.5596 11.8029C77.7141 11.6496 77.8686 11.4964 77.8686 11.3431C77.8686 11.1898 78.0231 10.8832 78.0231 10.7299C78.0231 10.5766 78.0231 10.4234 78.0231 10.2701C78.0231 10.1168 77.8686 10.1168 77.8686 9.9635H74.7786C74.4696 9.9635 74.3151 9.9635 74.1606 9.9635C74.0061 9.9635 74.0061 9.81022 74.0061 9.65694C74.0061 9.50365 74.0061 9.35037 74.0061 9.0438V5.51825C74.0061 4.59854 74.0061 3.67883 74.1606 3.21898C74.3151 2.60584 74.4696 2.29927 74.6241 1.9927C74.7786 1.68613 75.0876 1.68613 75.3966 1.68613C75.5511 1.68613 75.7056 1.68613 75.8601 1.83942C76.0146 1.9927 76.3236 2.14599 76.6326 2.45255C76.9416 2.75912 77.2506 3.21898 77.7141 3.83212C77.8686 3.9854 78.0231 4.13869 78.1776 4.13869C78.3321 4.29197 78.6411 4.29197 78.9501 4.29197C79.2591 4.29197 79.5681 4.29197 79.8771 4.13869C80.1861 3.9854 80.3406 3.83212 80.4951 3.52555C80.6496 3.21898 80.8041 2.91241 80.8041 2.60584C80.8041 2.14599 80.6496 1.83942 80.4951 1.53285C80.3406 1.22628 80.0316 0.919708 79.5681 0.766423C79.2591 0.613139 78.7956 0.306569 78.3321 0.306569C77.7141 0 77.2506 0 76.7871 0C75.8601 0 75.0876 0.153285 74.4696 0.306569C73.8516 0.459854 73.2336 0.766423 72.6156 1.22628C72.1521 1.68613 71.6886 1.9927 71.3796 2.60584C71.0706 3.06569 70.7616 3.67883 70.4526 4.13869C70.2981 4.59854 70.1436 4.90511 69.9891 5.36496C69.8346 5.82482 69.8346 6.28467 69.6801 6.74453C69.6801 7.20438 69.5256 7.66423 69.5256 8.12409C69.5256 8.58394 69.5256 8.89051 69.5256 9.35037C69.5256 9.50365 69.5256 9.65694 69.3711 9.81022C69.2166 9.9635 69.0621 10.1168 68.9076 10.1168L67.517 10.8832C67.517 10.8832 67.3625 11.0365 67.3625 11.1898C67.3625 11.3431 67.3625 11.4964 67.3625 11.4964C67.3625 11.6496 67.517 11.6496 67.517 11.8029H68.7531C69.0621 11.8029 69.2166 11.8029 69.2166 11.8029C69.5256 11.8029 69.5256 11.9562 69.5256 12.1095C69.5256 12.2628 69.5256 12.4161 69.5256 12.7226V19.1606C69.5256 19.7737 69.5256 20.2336 69.5256 20.5401C69.5256 20.8467 69.3711 21.1533 69.3711 21.3066C69.2166 21.4599 69.2166 21.6131 68.9076 21.6131C68.7531 21.6131 68.4441 21.7664 68.2896 21.7664H67.8261C67.6715 21.7664 67.6715 21.9197 67.6715 22.073C67.6715 22.2263 67.6715 22.3796 67.6715 22.5328C67.6715 22.6861 67.8261 22.8394 67.8261 22.8394C68.2896 22.8394 68.9076 22.8394 69.5256 22.8394C70.1436 22.8394 70.9161 22.8394 71.5341 22.8394C72.3066 22.8394 73.0791 22.8394 73.6971 22.8394C74.4696 22.8394 75.0876 22.8394 75.8601 22.8394C76.0146 22.8394 76.0146 22.6861 76.0146 22.5328C76.0146 22.3796 76.0146 22.2263 76.0146 22.073C76.0146 21.9197 75.8601 21.7664 75.8601 21.7664L74.7786 21.6131C74.4696 21.6131 74.3151 21.6131 74.1606 21.4599C74.0061 21.4599 73.8516 21.3066 73.8516 21.1533C73.6971 21 73.6971 20.6934 73.6971 20.3869C73.6971 20.0803 73.6971 19.6204 73.6971 19.0073V12.7226C73.6971 12.4161 73.6971 12.2628 73.6971 12.1095C73.6971 11.9562 73.8516 11.9562 73.8516 11.8029C74.0061 11.8029 74.1606 11.8029 74.4696 11.8029H77.5596ZM82.1947 23.2993C82.9672 23.2993 83.7397 23.146 84.3577 22.9927C84.9757 22.8394 85.5937 22.5328 86.0572 22.2263C86.5207 21.9197 86.9842 21.4599 87.2932 20.8467C87.6022 20.3869 87.7567 19.6204 87.7567 19.0073C87.7567 18.3942 87.6022 17.6277 87.2932 17.1679C86.9842 16.5547 86.6752 16.0949 86.0572 15.635C85.5937 15.3285 84.9757 14.8686 84.2032 14.562C83.4307 14.2555 82.9672 13.9489 82.6582 13.4891C82.3492 13.1825 82.1947 12.8759 82.1947 12.4161C82.1947 11.9562 82.3492 11.6496 82.6582 11.3431C82.9672 11.0365 83.2762 11.0365 83.7397 11.0365C84.0487 11.0365 84.3577 11.0365 84.6667 11.3431C84.9757 11.4964 85.2847 11.8029 85.4392 12.1095C85.7482 12.4161 85.9027 13.0292 86.2117 13.6423C86.2117 13.6423 86.3662 13.7956 86.5207 13.7956C86.6752 13.7956 86.8297 13.7956 86.9842 13.7956C87.1387 13.7956 87.2932 13.6423 87.2932 13.4891C87.2932 13.0292 87.2932 12.7226 87.2932 12.2628C87.2932 11.8029 87.1387 11.4964 87.1387 11.1898C87.1387 10.8832 86.9842 10.5766 86.8297 10.2701C86.6752 10.1168 86.5207 10.1168 86.2117 9.9635C85.9027 9.81022 85.4392 9.81022 84.9757 9.65694C84.5122 9.65694 84.0487 9.50365 83.4307 9.50365C82.6582 9.50365 82.0402 9.65694 81.4222 9.81022C80.8042 9.9635 80.1861 10.2701 79.7226 10.5766C79.2591 10.8832 78.9501 11.3431 78.6411 11.8029C78.3321 12.2628 78.1776 12.8759 78.1776 13.6423C78.1776 14.2555 78.3321 14.8686 78.6411 15.3285C78.9501 15.7883 79.2591 16.2482 79.8771 16.5547C80.3406 16.8613 80.9587 17.3212 81.5767 17.6277C81.8857 17.781 82.3492 17.9343 82.6582 18.2409C82.9672 18.3942 83.2762 18.7007 83.4307 19.0073C83.5852 19.3139 83.7397 19.6204 83.7397 20.0803C83.7397 20.3869 83.7397 20.6934 83.5852 21C83.4307 21.3066 83.2762 21.4599 82.9672 21.6131C82.6582 21.7664 82.5037 21.7664 82.0402 21.7664C81.5767 21.7664 81.2677 21.6131 80.9587 21.4599C80.6497 21.3066 80.3406 21 80.0316 20.6934C79.7226 20.3869 79.5681 20.0803 79.2591 19.6204C79.1046 19.3139 78.9501 18.854 78.7956 18.5474C78.7956 18.3942 78.6411 18.3942 78.4866 18.3942C78.3321 18.3942 78.1776 18.3942 78.0231 18.3942C77.8686 18.3942 77.7141 18.5474 77.7141 18.5474C77.7141 19.0073 77.7141 19.4672 77.7141 19.927C77.7141 20.3869 77.8686 20.8467 77.8686 21.1533C78.0231 21.6131 78.0231 21.7664 78.1776 22.073C78.6411 22.3796 79.1046 22.6861 79.8771 22.8394C80.4951 23.146 81.2677 23.2993 82.1947 23.2993ZM103.516 4.90511C103.516 4.29197 103.516 3.67883 103.516 3.06569C103.516 2.45255 103.516 1.9927 103.516 1.53285C103.516 1.07299 103.516 0.613139 103.516 0.153285C103.516 0 103.361 0 103.207 0C103.052 0 103.052 0 102.898 0C102.434 0.306569 101.816 0.459854 101.198 0.766423C100.58 1.07299 100.117 1.22628 99.4988 1.37956C98.8808 1.53285 98.4173 1.68613 97.9538 1.83942C97.9538 1.83942 97.7993 1.9927 97.7993 2.14599C97.7993 2.29927 97.7993 2.45255 97.7993 2.45255C97.7993 2.60584 97.9538 2.60584 97.9538 2.75912L98.7263 3.06569C98.8808 3.21898 99.0353 3.37226 99.1898 3.52555C99.3443 3.67883 99.3443 3.83212 99.3443 4.13869C99.3443 4.44526 99.3443 4.75183 99.3443 5.21168V9.19708C99.3443 9.35037 99.3443 9.50365 99.3443 9.50365C99.3443 9.65693 99.1898 9.65694 99.0353 9.81022C98.8808 9.81022 98.7263 9.81022 98.5718 9.65694C98.4173 9.65694 98.1083 9.65694 97.9538 9.65694C97.6448 9.65694 97.4903 9.65694 97.1813 9.65694C96.0998 9.65694 95.1728 9.81022 94.2458 10.1168C93.3187 10.4234 92.5462 10.8832 91.7737 11.6496C91.0012 12.2628 90.5377 13.0292 90.0742 13.9489C89.6107 14.8686 89.4562 15.9416 89.4562 17.0146C89.4562 17.9343 89.6107 18.7007 89.9197 19.4672C90.2287 20.2336 90.6922 20.8467 91.1557 21.4599C91.7737 22.073 92.3917 22.5328 93.1642 22.8394C93.9368 23.146 94.7093 23.2993 95.6363 23.2993C96.0998 23.2993 96.4088 23.2993 96.8723 23.146C97.3358 22.9927 97.6448 22.8394 98.1083 22.6861C98.4173 22.5328 98.8808 22.2263 99.1898 22.073H99.3443C99.3443 22.073 99.4988 22.2263 99.4988 22.3796L99.3443 23.2993C99.3443 23.4526 99.4988 23.6058 99.4988 23.6058C99.6533 23.7591 99.6533 23.7591 99.8078 23.7591C99.8078 23.7591 99.9623 23.7591 100.271 23.6058C100.58 23.4526 101.044 23.4526 101.507 23.2993C101.971 23.146 102.589 22.9927 103.361 22.8394C103.979 22.6861 104.752 22.6861 105.524 22.5328C105.679 22.3796 105.679 22.2263 105.679 22.073C105.679 21.9197 105.679 21.7664 105.679 21.6131C105.679 21.4599 105.524 21.3066 105.37 21.1533C105.215 21.1533 105.061 21.3066 104.906 21.3066C104.752 21.3066 104.597 21.3066 104.443 21.4599C104.288 21.4599 104.134 21.4599 103.979 21.4599C103.825 21.4599 103.67 21.4599 103.67 21.3066C103.516 21.1533 103.516 21 103.516 20.6934C103.516 20.3869 103.361 20.0803 103.361 19.6204C103.361 19.1606 103.361 18.5474 103.361 17.781V4.90511H103.516ZM99.3443 19.6204C99.3443 19.927 99.3443 20.0803 99.3443 20.3869C99.3443 20.5401 99.1898 20.6934 99.0353 20.8467C98.8808 21 98.5718 21 98.4173 21.1533C98.2628 21.1533 97.9538 21.3066 97.7993 21.3066C97.3358 21.3066 96.8723 21.1533 96.4088 21C95.9453 20.8467 95.6363 20.5401 95.3273 20.2336C95.0183 19.927 94.8638 19.4672 94.7093 19.0073C94.2458 18.3942 94.2458 17.9343 94.0913 17.4745C93.9368 17.0146 93.9368 16.5547 93.9368 16.0949C93.9368 15.3285 94.0913 14.562 94.2458 13.9489C94.4003 13.3358 94.7093 12.7226 95.0183 12.4161C95.3273 11.9562 95.6363 11.6496 96.0998 11.4964C96.4088 11.3431 96.8723 11.1898 97.3358 11.1898C97.6448 11.1898 98.1083 11.3431 98.4173 11.4964C98.5718 11.6496 98.8808 11.9562 99.0353 12.2628C99.0353 12.4161 99.1898 12.5693 99.1898 12.7226C99.1898 12.8759 99.1898 13.1825 99.1898 13.3358V19.6204H99.3443ZM113.713 19.6204C113.713 19.927 113.713 20.2336 113.558 20.5401C113.558 20.8467 113.404 21 113.249 21C113.095 21.1533 112.786 21.1533 112.477 21.1533C112.168 21.1533 111.859 21 111.704 20.8467C111.395 20.6934 111.241 20.3869 111.086 20.0803C110.932 19.7737 110.932 19.4672 110.932 19.1606C110.932 18.7007 111.086 18.2409 111.241 17.9343C111.55 17.6277 111.859 17.3212 112.168 17.1679C112.631 17.0146 113.095 16.8613 113.558 16.8613C113.713 16.8613 113.713 16.8613 113.713 17.0146C113.713 17.0146 113.713 17.3212 113.713 17.4745V19.6204Z" fill="white"/>
<path d="M127 25.4453H56.0839V25.9051H127V25.4453Z" fill="white"/>
<path d="M51.4489 27.7445C51.9124 26.0584 52.2214 24.3723 52.2214 22.5328C52.2214 14.8686 47.7409 8.27737 41.4063 5.05839C41.4063 5.05839 41.4063 5.05839 41.2518 5.05839C40.0158 4.44525 38.6253 3.9854 37.2348 3.52554C35.5353 3.21897 33.9903 3.06569 32.4453 3.06569C29.6642 3.06569 27.1922 3.67883 24.8747 4.59854H24.7202C17.7676 7.51094 12.8236 14.562 12.8236 22.5328C12.8236 29.4307 16.3771 35.4088 21.7847 38.9343C23.9477 40.3139 26.2652 41.2336 28.7372 41.6934V41.8467C28.8917 41.8467 29.2007 41.8467 29.3552 41.8467C30.2822 42 31.2092 42.1533 32.2907 42.1533C37.2348 42.1533 41.8698 40.3139 45.2689 37.2482C48.3589 34.6423 50.3674 31.4234 51.4489 27.7445ZM50.9854 27.5912C50.3674 28.3577 49.4404 28.9708 48.2044 29.4307C49.2859 26.6715 49.7494 23.7591 49.5949 20.6934C50.3674 20.3869 50.8309 19.927 51.2944 19.4671C51.4489 20.3869 51.6034 21.4598 51.6034 22.3796C51.7579 24.3723 51.4489 26.0584 50.9854 27.5912ZM16.8406 30.6569C18.0766 31.8832 19.6216 32.8029 21.1667 33.7226C21.9392 35.8686 23.0207 38.0146 24.7202 40.0073C23.7932 39.5474 22.8662 39.0876 22.0937 38.6277C19.6216 36.3285 17.9221 33.5693 16.8406 30.6569ZM16.2226 22.2263C17.3041 23.4526 18.6946 24.5255 20.2397 25.4453C20.0852 27.7445 20.2397 30.3504 21.1667 33.1095C19.6216 32.1898 18.0766 30.9635 16.8406 29.7372C15.9136 27.2847 15.7591 24.8321 16.2226 22.2263ZM19.6216 13.3358C20.3942 14.2555 21.4757 15.0219 22.7117 15.7883C22.5572 15.9416 22.5572 16.0949 22.4027 16.4015C21.6302 18.2409 20.3942 21.3066 20.0852 24.9854C18.5401 24.0657 17.1496 22.8394 16.2226 21.6131C16.6861 18.854 17.7676 15.9416 19.6216 13.3358ZM15.9136 21.1533C14.9866 19.927 14.3686 18.5474 14.2141 17.0146C14.9866 14.562 16.2226 12.2628 17.9221 10.2701C18.2311 11.1898 18.6946 11.9562 19.4671 12.8759C17.4586 15.4817 16.3771 18.3942 15.9136 21.1533ZM38.9343 4.59854H38.6253L37.0803 10.7299C34.1448 10.1168 31.2092 9.19708 29.0462 8.12408C31.6727 5.67153 34.4538 4.13868 37.0803 4.13868C37.5438 4.13868 38.3163 4.29197 38.9343 4.59854ZM49.2859 20.5401C48.2044 21 46.8139 21.1533 45.1144 21.3066C45.4234 18.5474 45.2689 15.3285 44.1873 11.9562C45.1143 11.9562 45.8869 11.8029 46.6594 11.8029C48.2044 14.4088 49.1314 17.4744 49.2859 20.5401ZM47.1229 11.6496C47.4319 11.4963 47.7409 11.4963 48.0499 11.3431C49.7494 13.6423 50.9854 16.4015 51.4489 19.3139L51.2944 19.1606C50.9854 19.6204 50.3674 20.0803 49.7494 20.3869C49.4404 17.3212 48.6679 14.2555 47.1229 11.6496ZM20.5487 25.7518C23.4842 27.5912 27.0377 28.8175 30.4367 29.7372C30.9002 29.8905 31.3637 29.8905 31.8272 30.0438L29.9732 36.9416C27.0377 36.1752 24.1022 34.9489 21.4757 33.4161C20.7032 30.8102 20.3942 28.2044 20.5487 25.7518ZM30.5912 29.2774C27.1922 28.3577 23.4842 26.9781 20.5487 25.292C20.8577 21.6131 21.9392 18.3942 22.8662 16.5547C23.0207 16.4015 23.0207 16.2482 23.1752 16.0949C26.2652 18.0876 30.2822 19.6204 34.4538 20.5401L31.9817 29.5839C31.5182 29.5839 31.0547 29.4307 30.5912 29.2774ZM28.5827 8.27737C30.9002 9.35036 33.8358 10.4234 36.9258 11.0365L34.6083 20.0803C30.4367 19.1606 26.4197 17.6277 23.3297 15.635C24.7202 12.8759 26.5742 10.2701 28.5827 8.27737ZM34.9173 20.6934C35.9988 21 36.9258 21.1533 38.0073 21.3066C40.0158 21.6131 42.0243 21.7664 44.0328 21.7664C44.1873 21.7664 44.4963 21.7664 44.6508 21.7664C44.1873 24.6788 43.4148 26.9781 42.7968 28.5109C42.4878 29.2774 42.1788 29.8905 41.7153 30.6569C38.9343 30.6569 35.6898 30.5036 32.4453 29.7372L34.9173 20.6934ZM38.0073 20.8467C37.0803 20.6934 35.9988 20.5401 35.0718 20.2336L37.3893 11.1898C39.5523 11.6496 41.8698 11.9562 43.7238 11.9562C44.9598 15.1752 44.9598 18.5474 44.6508 21.3066C42.7968 21.3066 40.4793 21.1533 38.0073 20.8467ZM44.0328 11.4963C43.2603 9.35036 42.0243 7.20438 40.1703 5.05839C40.4793 5.21167 40.7883 5.36496 41.0973 5.51824C43.2603 7.05109 45.1143 9.04379 46.5049 11.3431C45.7324 11.4963 44.9599 11.4963 44.0328 11.4963ZM43.5693 11.4963C41.7153 11.4963 39.7068 11.1898 37.5438 10.7299L39.0888 4.75182H39.2433C41.2518 6.89781 42.6423 9.19708 43.5693 11.4963ZM28.5827 7.81751C27.9647 7.51094 27.5012 7.20438 27.0377 6.89781C26.8832 6.89781 26.8832 6.74452 26.7287 6.74452C29.2007 5.36496 31.8272 4.44525 34.6083 4.13868C32.4452 4.59854 30.4367 5.9781 28.5827 7.81751ZM26.7287 7.20437C27.1922 7.51094 27.6557 7.81751 28.2737 8.12408C26.2652 10.1168 24.4112 12.5693 23.0207 15.4817C21.7847 14.7153 20.7032 13.7956 19.9307 13.0292C21.6302 10.4234 23.7932 8.43065 26.2652 6.89781C26.4197 7.05109 26.5742 7.05109 26.7287 7.20437ZM21.7847 34.0292C24.2567 35.4088 27.0377 36.4817 29.9732 37.2482L28.8917 41.2336C27.8102 41.0803 26.7287 40.7737 25.6472 40.3139C23.7932 38.3212 22.5572 36.1752 21.7847 34.0292ZM29.3552 41.3869L30.4367 37.5547C32.1362 38.0146 33.9903 38.3212 35.8443 38.3212C33.8358 40.0073 31.6727 41.0803 29.6642 41.3869C29.5097 41.3869 29.5097 41.3869 29.3552 41.3869ZM30.5912 37.0949L32.4453 30.1971C35.3808 30.8102 38.3163 31.1168 41.0973 31.1168C41.2518 31.1168 41.4063 31.1168 41.5608 31.1168C40.1703 33.7226 38.3163 36.0219 36.3078 37.8613C34.2993 37.708 32.4452 37.5547 30.5912 37.0949ZM42.0243 31.1168C44.0328 31.1168 45.8869 30.8102 47.4319 30.3504C47.2774 30.6569 47.2774 30.8102 47.1229 31.1168C45.7324 33.7226 43.8783 35.8686 41.8698 37.5547C40.3248 37.8613 38.6253 37.8613 36.9258 37.8613C38.7798 36.0219 40.6338 33.7226 42.0243 31.1168ZM42.3333 30.6569C42.6423 30.0438 42.9513 29.4307 43.2603 28.8175C43.8783 27.2847 44.8054 24.8321 45.1144 21.7664C46.6594 21.7664 48.2044 21.4598 49.2859 21C49.4404 23.9124 48.8224 26.9781 47.7409 29.7372C46.1959 30.1971 44.3418 30.5036 42.3333 30.6569ZM47.7409 10.8832C47.4319 11.0365 47.2774 11.0365 46.9684 11.1898C46.0414 9.65693 44.9599 8.12408 43.5693 6.89781C45.1144 8.12408 46.5049 9.50365 47.7409 10.8832ZM34.2993 3.52554C31.5182 3.83211 28.7372 4.75182 26.2652 6.28467C25.6472 5.82481 25.3382 5.36496 25.1837 4.90511C27.5012 3.9854 29.8187 3.52554 32.4453 3.52554C33.0633 3.52554 33.6813 3.52554 34.2993 3.52554ZM24.7202 5.05839C24.8747 5.51824 25.1837 5.9781 25.8017 6.59124C23.4842 8.12408 21.3212 10.1168 19.4671 12.5693C18.6946 11.8029 18.2311 10.8832 17.9221 9.9635C19.9307 7.9708 22.2482 6.28467 24.7202 5.05839ZM13.7506 18.0876C14.0596 19.4671 14.8321 20.6934 15.7591 21.7664C15.4501 24.219 15.4501 26.8248 16.0681 29.1241C15.1411 28.2044 14.3686 27.2847 13.7506 26.2117C13.4416 24.9854 13.4416 23.7591 13.4416 22.5328C13.2871 21 13.4416 19.6204 13.7506 18.0876ZM13.9051 27.438C14.5231 28.3577 15.2956 29.2774 16.2226 30.0438C16.8406 32.4963 18.0766 34.7956 19.7762 36.7883C16.9951 34.3358 14.8321 31.1168 13.9051 27.438ZM36.4623 38.3212C36.9258 38.3212 37.3893 38.3212 37.8528 38.3212C38.9343 38.3212 40.1703 38.1679 41.2518 38.0146C38.7798 40.0073 35.8443 41.0803 32.5998 41.5401C32.1362 41.5401 31.6727 41.5401 31.0547 41.5401C32.7543 41.0803 34.6083 39.854 36.4623 38.3212ZM36.1533 41.2336C38.3163 40.4671 40.1703 39.3942 42.0243 38.0146C42.7968 37.8613 43.5693 37.708 44.4963 37.4015C42.0243 39.2409 39.2433 40.6204 36.1533 41.2336ZM45.2689 36.7883C44.4963 37.0949 43.5693 37.2482 42.6423 37.5547C44.4963 35.8686 46.0414 33.8759 47.2774 31.4234C47.4319 31.1168 47.5864 30.6569 47.8954 30.3504C48.9769 29.8905 49.9039 29.4307 50.6764 28.8175C49.5949 31.7299 47.7409 34.489 45.2689 36.7883Z" fill="white"/>
<path opacity="0.5" d="M21.9392 38.9343C21.7847 38.9343 21.7847 38.9343 21.9392 38.9343C16.5316 35.4088 12.8236 29.2774 12.8236 22.5328C12.8236 17.3212 14.9866 12.4161 18.3856 8.89051C18.0766 8.58394 17.9221 8.12408 17.9221 7.66423H15.4501C15.4501 8.89051 14.5231 9.81022 13.2871 9.81022C12.0511 9.81022 11.1241 8.89051 11.1241 7.66423H8.80657C8.80657 8.89051 7.87956 9.81022 6.64355 9.81022C5.40754 9.81022 4.32603 8.89051 4.32603 7.66423H1.85401C1.85401 8.73722 1.08151 9.65693 0 9.81022V12.2628C1.08151 12.4161 1.85401 13.3358 1.85401 14.4088C1.85401 15.4817 1.08151 16.4015 0 16.5547V19.0073C1.08151 19.1606 1.85401 20.0803 1.85401 21.1533C1.85401 22.2263 1.08151 23.146 0 23.2993V25.7518C1.08151 25.9051 1.85401 26.8248 1.85401 27.8978C1.85401 28.9708 1.08151 29.8905 0 30.0438V32.1898C1.08151 32.3431 1.85401 33.2628 1.85401 34.3358C1.85401 35.4088 1.08151 36.3285 0 36.4817V38.9343C1.08151 39.0876 1.85401 40.0073 1.85401 41.0803H4.32603C4.32603 39.854 5.25304 38.9343 6.48905 38.9343C7.72506 38.9343 8.65207 39.854 8.65207 41.0803H10.9696C10.9696 39.854 11.8966 38.9343 13.1326 38.9343C14.3686 38.9343 15.2956 39.854 15.2956 41.0803H17.4586C17.4586 39.854 18.3856 38.9343 19.6217 38.9343C20.8577 38.9343 21.7847 39.854 21.7847 41.0803H25.8017C24.5657 40.4671 23.1752 39.854 21.9392 38.9343Z" fill="white"/>
</g>
<defs>
<clipPath id="clip0">
<rect width="127" height="42" fill="white"/>
</clipPath>
</defs>
</svg>
