<svg width="39" height="39" viewBox="0 0 39 39" fill="none" xmlns="http://www.w3.org/2000/svg">
<path d="M20.3151 22.6977H32.3537C32.1029 23.8264 31.6013 24.955 30.9743 25.9582H23.074V34.6109L23.5756 34.4855C30.0965 32.7299 34.7363 26.9614 34.9871 20.1897V19.6881H26.209L26.3344 1.25402C31.9775 3.38585 36.3666 8.02572 38.1222 13.7942H33.9839C33.1061 11.537 31.6013 9.40514 29.8457 7.90032L29.0932 7.27331V16.5531H38.7492C38.8746 17.6817 39 18.5595 39 19.5627C39 29.9711 30.5981 38.6238 20.1897 39L20.3151 22.6977ZM16.9293 38.7492C16.0514 38.6238 15.0482 38.373 14.1704 38.1222V0.62701C15.926 0.250804 17.6817 0 19.4373 0C20.5659 0 21.8199 0.125402 22.9486 0.376206V19.8135H16.8039V38.7492H16.9293ZM19.4373 3.88746C18.8103 3.88746 18.0579 3.88746 17.3055 4.01286H16.9293V16.3023H20.3151V3.76206H19.9389C19.6881 3.88746 19.5627 3.88746 19.4373 3.88746ZM11.4116 37.2444C4.51447 34.1093 0 27.2122 0 19.4373C0 12.0386 4.26367 5.26688 10.91 2.00643V29.3441H10.7846C10.4084 28.8424 8.90354 27.3376 8.27653 26.3344V19.8135H3.88746V20.3151C4.01286 23.5756 5.26688 26.7106 7.27331 29.3441H7.52412C8.65273 30.7235 9.90675 31.8521 11.4116 32.7299V37.2444ZM7.39871 9.65595C5.89389 11.537 4.89068 13.6688 4.26367 15.926L4.13826 16.4277H8.15113V8.77813L7.39871 9.65595Z" fill="white"/>
</svg>
