<svg width="49" height="42" viewBox="0 0 49 42" fill="none" xmlns="http://www.w3.org/2000/svg">
<path fill-rule="evenodd" clip-rule="evenodd" d="M0 42L24.1365 0L49 42H0ZM1.1632 41.2683H47.6914L23.9911 1.02439L1.1632 41.2683Z" fill="white"/>
<path fill-rule="evenodd" clip-rule="evenodd" d="M16.7211 39.2195V34.2439H9.74185L6.97924 39.2195H4.94363L18.6113 15.3658V39.3658H16.7211V39.2195ZM10.7597 32.3415H16.7211V22.0976L10.7597 32.3415Z" fill="white"/>
<path fill-rule="evenodd" clip-rule="evenodd" d="M20.6469 38.6341V37.0244H21.3739V28.5366H20.6469V26.3415H27.4807V38.7805H20.6469V38.6341ZM22.9733 37.0244H25.5905V28.5366H22.9733V37.0244Z" fill="white"/>
<path fill-rule="evenodd" clip-rule="evenodd" d="M42.0208 39.2195L39.1128 34.2439H31.8427V39.2195H29.9525V15.2195L44.2018 39.2195H42.0208V39.2195ZM31.6973 32.3415H37.9495L31.6973 21.8049V32.3415Z" fill="white"/>
<path fill-rule="evenodd" clip-rule="evenodd" d="M20.9377 24V19.0244H23.1187V21.8049H25.5905V17.561H20.9377V11.122L24.1365 5.561L27.3353 10.9756V13.3171H25.5905V11.4147L24.1365 9.0732L22.8279 11.561V15.3659H27.3353V24H20.9377Z" fill="white"/>
</svg>
