<svg width="62" height="30" viewBox="0 0 62 30" fill="none" xmlns="http://www.w3.org/2000/svg">
<g clip-path="url(#clip0)">
<path d="M9.7 17.8C9.5 17.7 9.2 17.7 8.8 17.7H7.2V20.1H8.8C9.4 20.1 9.8 20 10 19.8C10.2 19.6 10.3 19.3 10.3 18.9C10.3 18.6 10.2 18.4 10.1 18.2C10 17.9 9.9 17.8 9.7 17.8Z" fill="white"/>
<path d="M10 7.6C10.1 7.5 10.2 7.3 10.2 7C10.2 6.7 10.1 6.5 10 6.4C9.8 6.3 9.6 6.2 9.3 6.2H7.5V7.8H9.2C9.5 7.8 9.8 7.7 10 7.6Z" fill="white"/>
<path d="M16.3 17.5C15.6 17.5 15.1 17.8 14.6 18.3C14.2 18.8 13.9 19.6 13.9 20.5C13.9 21.5 14.1 22.2 14.6 22.7C15 23.2 15.6 23.5 16.2 23.5C16.9 23.5 17.4 23.2 17.8 22.7C18.2 22.2 18.5 21.4 18.5 20.5C18.5 19.6 18.3 18.8 17.8 18.3C17.5 17.7 16.9 17.5 16.3 17.5Z" fill="white"/>
<path d="M17.3 6C16.7 6 16.2 6.2 15.8 6.6C15.4 7 15.3 7.7 15.3 8.5C15.3 9.3 15.5 10 15.8 10.4C16.1 10.8 16.6 11 17.3 11C17.9 11 18.4 10.8 18.8 10.4C19.2 10 19.3 9.3 19.3 8.5C19.3 7.7 19.1 7 18.8 6.6C18.4 6.3 17.9 6 17.3 6Z" fill="white"/>
<path d="M52.8 21H54.6L53.7 18.3L52.8 21Z" fill="white"/>
<path d="M62 2.1V0.8C61.6 0.8 61.3 0.4 61.3 0H60C60 0.4 59.7 0.8 59.2 0.8C58.8 0.8 58.4 0.5 58.4 0H57.3C57.3 0.4 57 0.8 56.5 0.8C56.1 0.8 55.7 0.5 55.7 0H54.7C54.7 0.4 54.4 0.8 53.9 0.8C53.5 0.8 53.1 0.5 53.1 0H52C52 0.4 51.7 0.8 51.2 0.8C50.8 0.8 50.4 0.5 50.4 0H49.1C49.1 0.4 48.8 0.8 48.3 0.8C47.9 0.8 47.5 0.5 47.5 0H46.4C46.4 0.4 46.1 0.8 45.6 0.8C45.4 0.8 45 0.4 45 0H43.9C43.9 0.4 43.6 0.8 43.1 0.8C42.7 0.8 42.3 0.5 42.3 0H41.2C41.2 0.4 40.9 0.8 40.4 0.8C39.9 0.8 39.7 0.4 39.7 0H38.4C38.4 0.4 38.1 0.8 37.6 0.8C37.2 0.8 36.8 0.5 36.8 0H35.7C35.7 0.4 35.4 0.8 34.9 0.8C34.5 0.8 34.1 0.5 34.1 0H33.1C33.1 0.4 32.8 0.8 32.3 0.8C31.8 0.8 31.7 0.4 31.7 0H30.6C30.6 0.4 30.3 0.8 29.8 0.8C29.3 0.8 29 0.4 29 0H27.7C27.7 0.4 27.4 0.8 26.9 0.8C26.4 0.8 26.2 0.4 26.2 0H25.1C25.1 0.4 24.8 0.8 24.3 0.8C23.8 0.8 23.5 0.4 23.5 0H22.5C22.5 0.4 22.2 0.8 21.7 0.8C21.2 0.8 20.9 0.4 20.9 0H19.8C19.8 0.4 19.5 0.8 19 0.8C18.5 0.8 18.2 0.4 18.2 0H17C17 0.4 16.7 0.8 16.2 0.8C15.7 0.8 15.4 0.4 15.4 0H14.3C14.3 0.4 14 0.8 13.5 0.8C13 0.8 12.7 0.4 12.7 0H11.7C11.7 0.4 11.4 0.8 10.9 0.8C10.4 0.8 10.1 0.4 10.1 0H9C9 0.4 8.7 0.8 8.2 0.8C7.8 0.8 7.5 0.4 7.5 0H6.2C6.2 0.4 5.9 0.8 5.4 0.8C4.9 0.8 4.6 0.4 4.6 0H3.5C3.5 0.4 3.2 0.8 2.7 0.8C2.2 0.8 2 0.4 2 0H0.8C0.8 0.4 0.5 0.8 0 0.8V1.9C0.4 1.9 0.8 2.2 0.8 2.7C0.8 3.2 0.4 3.5 0 3.5V4.6C0.4 4.6 0.8 4.9 0.8 5.4C0.8 5.9 0.4 6.1 0 6.1V7.1C0.4 7.1 0.8 7.4 0.8 7.9C0.8 8.4 0.4 8.7 0 8.7V9.8C0.4 9.8 0.8 10.1 0.8 10.6C0.8 11.1 0.4 11.4 0 11.4V12.7C0.4 12.7 0.8 13 0.8 13.5C0.8 14 0.4 14.2 0 14.2V15.3C0.4 15.3 0.8 15.6 0.8 16.1C0.8 16.6 0.4 16.9 0 16.9V17.9C0.4 17.9 0.8 18.2 0.8 18.7C0.8 19.2 0.4 19.5 0 19.5V20.6C0.4 20.6 0.8 20.9 0.8 21.4C0.8 21.9 0.4 22.2 0 22.2V23.5C0.4 23.5 0.8 23.8 0.8 24.3C0.8 24.8 0.4 25 0 25V26.1C0.4 26.1 0.8 26.4 0.8 26.9C0.8 27.4 0.4 27.7 0 27.7V28.9C0.1 28.9 0.1 28.9 0.2 28.9C0.6 28.9 1 29.2 1 29.7H2.2C2.2 29.3 2.5 28.9 3 28.9C3.4 28.9 3.8 29.2 3.8 29.7H4.9C4.9 29.3 5.2 28.9 5.7 28.9C6.1 28.9 6.5 29.2 6.5 29.7H7.8C7.8 29.3 8.1 28.9 8.6 28.9C9 28.9 9.4 29.2 9.4 29.7H10.5C10.5 29.3 10.8 28.9 11.3 28.9C11.7 28.9 12.1 29.2 12.1 29.7H13.1C13.1 29.3 13.4 28.9 13.9 28.9C14.3 28.9 14.7 29.2 14.7 29.7H15.8C15.8 29.3 16.1 28.9 16.6 28.9C17 28.9 17.4 29.2 17.4 29.7H18.7C18.7 29.3 19 28.9 19.5 28.9C19.9 28.9 20.3 29.2 20.3 29.7H21.4C21.4 29.3 21.7 28.9 22.2 28.9C22.6 28.9 23 29.2 23 29.7H24C24 29.3 24.3 28.9 24.8 28.9C25.2 28.9 25.6 29.2 25.6 29.7H26.7C26.7 29.3 27 28.9 27.5 28.9C27.9 28.9 28.3 29.2 28.3 29.7H29.6C29.6 29.3 29.9 28.9 30.4 28.9C30.8 28.9 31.2 29.2 31.2 29.7H32.3C32.3 29.3 32.6 28.9 33.1 28.9C33.5 28.9 33.9 29.2 33.9 29.7H34.9C34.9 29.3 35.2 28.9 35.7 28.9C36.1 28.9 36.5 29.2 36.5 29.7H37.6C37.6 29.3 37.9 28.9 38.4 28.9C38.8 28.9 39.2 29.2 39.2 29.7H40.5C40.5 29.3 40.8 28.9 41.3 28.9C41.7 28.9 42.1 29.2 42.1 29.7H43.2C43.2 29.3 43.5 28.9 44 28.9C44.5 28.9 44.8 29.2 44.8 29.7H45.9C45.9 29.3 46.2 28.9 46.7 28.9C47.2 28.9 47.5 29.2 47.5 29.7H48.6C48.6 29.3 48.9 28.9 49.4 28.9C49.9 28.9 50.2 29.2 50.2 29.7H51.5C51.5 29.3 51.8 28.9 52.3 28.9C52.8 28.9 53.1 29.2 53.1 29.7H54.2C54.2 29.3 54.5 28.9 55 28.9C55.5 28.9 55.8 29.2 55.8 29.7H56.8C56.8 29.3 57.1 28.9 57.6 28.9C58 28.9 58.4 29.2 58.4 29.7H59.5C59.5 29.3 59.8 28.9 60.3 28.9C60.7 28.9 61.1 29.2 61.1 29.7H62.4C62.4 29.4 62.6 29.1 62.9 29V27.9C62.5 27.9 62.2 27.5 62.2 27.1C62.2 26.7 62.5 26.3 62.9 26.3V25.2C62.5 25.2 62.2 24.8 62.2 24.4C62.2 24 62.5 23.6 62.9 23.6V22.3C62.5 22.3 62.2 21.9 62.2 21.5C62.2 21.1 62.5 20.7 62.9 20.7V19.6C62.5 19.6 62.2 19.2 62.2 18.8C62.2 18.4 62.5 18 62.9 18V17C62.5 17 62.2 16.6 62.2 16.2C62.2 15.8 62.5 15.4 62.9 15.4V14.3C62.5 14.3 62.2 13.9 62.2 13.5C62.2 13.1 62.5 12.7 62.9 12.7V11.4C62.5 11.4 62.2 11 62.2 10.6C62.2 10.2 62.5 9.8 62.9 9.8V8.9C62.5 8.9 62.2 8.5 62.2 8.1C62.2 7.7 62.5 7.3 62.9 7.3V6.3C62.5 6.3 62.2 5.9 62.2 5.5C62.2 5.1 62.5 4.7 62.9 4.7V3.6C62.5 3.6 62.2 3.2 62.2 2.8C61.3 2.4 61.6 2.1 62 2.1ZM51.8 4.2H54.1L57.3 12.9H55L54.4 11.2H51.6L51.1 13H48.7L51.8 4.2ZM37.8 4.2H40V13H37.8V4.2ZM5.3 13V4.2H9.5C10.5 4.2 11.2 4.4 11.7 4.8C12.2 5.2 12.4 5.9 12.4 6.8C12.4 7.4 12.3 7.8 12 8.2C11.9 8.4 11.7 8.6 11.5 8.7C11.7 8.8 11.8 9 11.9 9.1C12.1 9.4 12.2 9.8 12.2 10.4V11.4C12.2 11.9 12.3 12 12.4 12L12.6 12.1V13H10.3L10.2 12.8C10.1 12.7 10.1 12.5 10 12.3C10 12.1 9.9 11.9 9.9 11.7V10.8C9.9 10.2 9.8 10 9.7 10C9.6 9.9 9.4 9.8 9 9.8H7.5V13H5.3ZM11.1 20.9C10.6 21.4 9.8 21.6 8.8 21.6H7.2V24.9H5.6V16.2H8.7C9.4 16.2 9.9 16.3 10.3 16.4C10.8 16.5 11.2 16.9 11.5 17.3C11.8 17.8 11.9 18.3 11.9 18.8C11.9 19.7 11.7 20.4 11.1 20.9ZM19.1 23.7C18.4 24.5 17.4 25 16.3 25C15.2 25 14.2 24.6 13.5 23.7C12.8 22.9 12.4 21.8 12.4 20.5C12.4 19.2 12.8 18.1 13.5 17.3C14.2 16.5 15.2 16 16.3 16C17.4 16 18.4 16.4 19.1 17.3C19.8 18.1 20.2 19.2 20.2 20.5C20.2 21.8 19.8 22.9 19.1 23.7ZM17.3 13.2C16 13.2 15 12.8 14.2 11.9C13.4 11.1 13 9.9 13 8.6C13 7.2 13.4 6.1 14.2 5.3C14.9 4.4 16 4 17.3 4C18.6 4 19.6 4.4 20.4 5.3C21.2 6.1 21.6 7.3 21.6 8.6C21.6 10 21.2 11.1 20.4 11.9C19.6 12.8 18.6 13.2 17.3 13.2ZM22.8 22.8C23.2 23.3 23.7 23.5 24.4 23.5C24.9 23.5 25.3 23.4 25.6 23.1C25.9 22.8 26.1 22.5 26.1 22V21.7H27.7V22C27.6 22.9 27.3 23.7 26.7 24.2C26.1 24.7 25.3 25 24.4 25C23.2 25 22.3 24.6 21.6 23.8C20.9 23 20.6 21.9 20.6 20.5C20.6 19.1 20.9 18 21.6 17.2C22.3 16.4 23.2 16 24.4 16C25.3 16 26.1 16.3 26.7 16.8C27.3 17.3 27.7 18 27.8 18.9V19.2H26.2V18.9C26.2 18.5 26 18.1 25.7 17.9C25.4 17.6 25 17.5 24.5 17.5C23.8 17.5 23.3 17.7 22.9 18.2C22.5 18.7 22.3 19.5 22.3 20.5C22.2 21.5 22.4 22.2 22.8 22.8ZM25.6 13.2C24.5 13.2 23.6 12.9 23 12.4C22.4 11.9 22 11.1 22 10.2V9.9H24.2V10.1C24.3 10.5 24.4 10.7 24.6 10.9C24.9 11.1 25.2 11.2 25.8 11.2C26.2 11.2 26.5 11.1 26.7 11C26.9 10.9 27 10.7 27 10.5C27 10.4 26.9 10 25 9.5H24.8C24 9.3 23.4 9.1 23.1 8.9C22.8 8.7 22.5 8.4 22.3 8C22.1 7.6 22 7.2 22 6.8C22 5.9 22.3 5.2 22.9 4.7C23.6 4.2 24.4 4 25.5 4C26.5 4 27.3 4.3 27.9 4.7C28.5 5.2 28.8 5.9 28.9 6.8V7.1H26.7V6.8C26.7 6.5 26.6 6.3 26.4 6.1C26.2 5.9 25.8 5.8 25.4 5.8C25 5.8 24.7 5.9 24.5 6C24.3 6.1 24.3 6.3 24.3 6.5C24.3 6.8 24.7 7 25.5 7.2L26.1 7.3C26.7 7.5 27.1 7.6 27.4 7.7C27.6 7.9 27.8 8 28 8.2C28.4 8.4 28.7 8.7 28.9 9C29.1 9.3 29.2 9.8 29.2 10.2C29.2 11.1 28.9 11.9 28.2 12.4C27.6 12.9 26.7 13.2 25.6 13.2ZM30.4 22.8C30.8 23.3 31.3 23.5 32 23.5C32.5 23.5 32.9 23.4 33.2 23.1C33.5 22.8 33.7 22.5 33.7 22V21.7H35.3V22C35.2 22.9 34.9 23.7 34.3 24.2C33.7 24.7 32.9 25 32 25C30.8 25 29.9 24.6 29.2 23.8C28.5 23 28.2 21.9 28.2 20.5C28.2 19.1 28.5 18 29.2 17.2C29.9 16.4 30.8 16 32 16C32.9 16 33.7 16.3 34.3 16.8C34.9 17.3 35.3 18 35.4 18.9V19.2H33.8V18.9C33.8 18.5 33.6 18.1 33.3 17.9C33 17.6 32.6 17.5 32.1 17.5C31.4 17.5 30.9 17.7 30.5 18.2C30.1 18.7 29.9 19.5 29.9 20.5C29.8 21.5 30 22.2 30.4 22.8ZM33.4 13.2C32.3 13.2 31.4 12.9 30.8 12.4C30.2 11.9 29.8 11.1 29.8 10.2V9.9H32V10.1C32.1 10.5 32.2 10.7 32.4 10.9C32.7 11.1 33 11.2 33.6 11.2C34 11.2 34.3 11.1 34.5 11C34.7 10.9 34.8 10.7 34.8 10.5C34.8 10.4 34.7 10 32.8 9.5H32.6C31.8 9.3 31.2 9.1 30.9 8.9C30.6 8.7 30.3 8.4 30.1 8C29.9 7.6 29.8 7.2 29.8 6.8C29.8 5.9 30.1 5.2 30.7 4.7C31.4 4.2 32.2 4 33.3 4C34.3 4 35.1 4.3 35.7 4.7C36.3 5.2 36.6 5.9 36.7 6.8V7.1H34.5V6.8C34.5 6.5 34.4 6.3 34.2 6.1C34 5.9 33.6 5.8 33.2 5.8C32.8 5.8 32.5 5.9 32.3 6C32.1 6.1 32.1 6.3 32.1 6.5C32.1 6.8 32.5 7 33.3 7.2L33.9 7.3C34.5 7.5 34.9 7.6 35.2 7.7C35.5 7.8 35.7 7.9 35.9 8C36.3 8.2 36.6 8.5 36.8 8.8C37 9.1 37.1 9.6 37.1 10C37.1 10.9 36.8 11.7 36.1 12.2C35.4 12.9 34.5 13.2 33.4 13.2ZM42.7 24.9H41.2V19L37.7 24.8H36.2V16.1H37.7V22L41.2 16.2H42.7V24.9ZM42 12C41.3 11.2 40.9 10.1 40.9 8.6C40.9 7.1 41.3 6 42 5.2C42.7 4.4 43.8 4 45.1 4C46.2 4 47.1 4.3 47.8 4.8C48.5 5.4 48.8 6.2 48.9 7.2V7.5H46.7V7.3C46.6 6.9 46.5 6.6 46.2 6.4C45.9 6.2 45.6 6.1 45.1 6.1C44.4 6.1 44 6.3 43.6 6.7C43.3 7.1 43.1 7.8 43.1 8.6C43.1 9.4 43.3 10.1 43.6 10.5C43.9 10.9 44.4 11.1 45 11.1C45.5 11.1 45.8 11 46.1 10.8C46.4 10.6 46.5 10.3 46.6 9.8V9.6H48.8V9.9C48.7 10.9 48.3 11.7 47.6 12.3C46.9 12.9 46 13.2 44.9 13.2C43.7 13.2 42.7 12.8 42 12ZM56 24.9L55.1 22.4H52.3L51.5 24.9H48.8L46.2 21L45.3 21.9V24.9H43.7V16.2H45.3V19.8L48.6 16.2H50.7L47.2 19.9L50.1 24.1L52.9 16.3H54.4L57.7 25H56V24.9Z" fill="white"/>
<path d="M53 7.1L52.3 9.3H53.8L53 7.1Z" fill="white"/>
</g>
<defs>
<clipPath id="clip0">
<rect width="62" height="29.6" fill="white"/>
</clipPath>
</defs>
</svg>
