<svg width="25" height="26" viewBox="0 0 25 26" fill="none" xmlns="http://www.w3.org/2000/svg">
<path fill-rule="evenodd" clip-rule="evenodd" d="M2.40458 13.412H10.7443V24.8556H4.42366C3.28244 24.8556 2.40458 23.9754 2.40458 22.831V13.412V13.412ZM20.9275 4.25704C20.9275 4.60915 20.9275 4.87324 20.9275 5.13732H13.6412V4.87324C13.8168 4.87324 14.0802 4.87324 14.3435 4.87324C22.9466 5.13732 18.8206 -0.320422 15.3969 2.32042C14.6947 2.84859 14.0802 3.46479 13.6412 3.99296C14.0802 3.46479 14.6947 2.93662 15.3969 2.40845C16.3626 1.70423 17.416 1.08803 17.9427 1C18.0305 1 18.2061 1 18.2061 1C18.8206 1.17606 19.3473 1.52817 19.7863 2.05634C20.2252 2.49648 20.5763 3.02465 20.7519 3.64084C20.8397 3.64084 20.9275 3.90493 20.9275 4.25704ZM11.1832 3.64084H12.6756C12.9389 3.64084 13.1145 3.8169 13.1145 4.08099V5.13732C13.1145 5.40141 12.9389 5.57746 12.6756 5.57746H11.1832C10.9198 5.57746 10.7443 5.40141 10.7443 5.13732V4.08099C10.6565 3.8169 10.9198 3.64084 11.1832 3.64084ZM10.2176 5.13732H4.42366C4.42366 4.87324 4.42366 4.69718 4.42366 4.4331C4.42366 4.16901 4.51145 3.99296 4.59924 3.72887C4.77481 3.28873 5.03817 2.84859 5.38931 2.49648C5.74046 2.14437 6.17939 1.88028 6.61832 1.70423C6.70611 1.70423 6.79389 1.70423 6.88168 1.70423C7.32061 1.79225 8.11069 2.23239 8.90076 2.84859C9.33969 3.28873 9.86641 3.72887 10.2176 4.08099V4.25704C9.86641 3.8169 9.33969 3.37676 8.81298 2.93662C5.74046 0.647887 2.58015 5.75352 10.2176 4.96127V5.13732ZM1.6145 6.19366H10.8321V12.0915H2.05344C1.43893 12.0915 1 11.6514 1 11.0352V6.80986C1 6.45775 1.26336 6.19366 1.6145 6.19366ZM13.3779 6.19366H22.5954C22.9466 6.19366 23.2099 6.45775 23.2099 6.80986V10.9472C23.2099 11.6514 22.6832 12.1796 21.9809 12.1796H13.3779V6.19366V6.19366ZM13.3779 13.412H21.7176V23.007C21.7176 23.9754 20.9275 24.8556 19.874 24.8556H13.3779V13.412Z" stroke="white" stroke-width="2" stroke-miterlimit="10"/>
</svg>
