<svg width="23" height="25" viewBox="0 0 23 25" fill="none" xmlns="http://www.w3.org/2000/svg">
<g clip-path="url(#clip0)">
<path fill-rule="evenodd" clip-rule="evenodd" d="M1.84354 13.117H10.1832V24.5607H3.86263C2.72141 24.5607 1.84354 23.6804 1.84354 22.5361V13.117V13.117ZM20.3664 3.96212C20.3664 4.31423 20.3664 4.57832 20.3664 4.8424H13.0802V4.57832C13.2558 4.57832 13.5191 4.57832 13.7825 4.57832C22.3855 4.8424 18.2596 -0.615344 14.8359 2.0255C14.1336 2.55367 13.5191 3.16987 13.0802 3.69804C13.5191 3.16987 14.1336 2.6417 14.8359 2.11353C15.8016 1.4093 16.855 0.793106 17.3817 0.705078C17.4695 0.705078 17.6451 0.705078 17.6451 0.705078C18.2596 0.881134 18.7863 1.23325 19.2252 1.76142C19.6642 2.20156 20.0153 2.72973 20.1909 3.34592C20.2787 3.34592 20.3664 3.61001 20.3664 3.96212ZM10.6222 3.34592H12.1145C12.3779 3.34592 12.5535 3.52198 12.5535 3.78606V4.8424C12.5535 5.10649 12.3779 5.28254 12.1145 5.28254H10.6222C10.3588 5.28254 10.1832 5.10649 10.1832 4.8424V3.78606C10.0955 3.52198 10.3588 3.34592 10.6222 3.34592ZM9.65652 4.8424H3.86263C3.86263 4.57832 3.86263 4.40226 3.86263 4.13818C3.86263 3.87409 3.95042 3.69804 4.0382 3.43395C4.21377 2.99381 4.47713 2.55367 4.82828 2.20156C5.17942 1.84944 5.61835 1.58536 6.05729 1.4093C6.14507 1.4093 6.23286 1.4093 6.32064 1.4093C6.75958 1.49733 7.54965 1.93747 8.33973 2.55367C8.77866 2.99381 9.30538 3.43395 9.65652 3.78606V3.96212C9.30538 3.52198 8.77866 3.08184 8.25194 2.6417C5.17942 0.352966 2.01912 5.4586 9.65652 4.66635V4.8424ZM1.05347 5.89874H10.271V11.7966H1.4924C0.877896 11.7966 0.438965 11.3565 0.438965 10.7403V6.51494C0.438965 6.16282 0.702324 5.89874 1.05347 5.89874ZM12.8168 5.89874H22.0344C22.3855 5.89874 22.6489 6.16282 22.6489 6.51494V10.6523C22.6489 11.3565 22.1222 11.8847 21.4199 11.8847H12.8168V5.89874V5.89874ZM12.8168 13.117H21.1565V22.7121C21.1565 23.6804 20.3664 24.5607 19.313 24.5607H12.8168V13.117Z" stroke="#004666" stroke-width="2" stroke-miterlimit="10"/>
</g>
<defs>
<clipPath id="clip0">
<rect width="23" height="25" fill="white"/>
</clipPath>
</defs>
</svg>
