<svg width="31" height="31" viewBox="0 0 31 31" fill="none" xmlns="http://www.w3.org/2000/svg">
<circle cx="15.5" cy="15.5" r="15.5" fill="#0E5C83"/>
<path d="M23.971 13.0654H21.9325V14.8691H19.9033V16.6811H21.9325V18.4848H23.971V16.6811H26.0001V14.8691H23.971V13.0654Z" fill="white"/>
<path d="M11.2199 21.871C14.8093 21.871 17.1936 19.2642 17.1936 15.5848C17.1936 15.1635 17.1513 14.8383 17.0924 14.5139H11.2208V16.726H14.7512C14.6069 17.6656 13.6822 19.5002 11.2208 19.5002C9.10019 19.5002 7.36855 17.6828 7.36855 15.4355C7.36855 13.1882 9.09936 11.37 11.2208 11.37C12.4341 11.37 13.2402 11.9054 13.6988 12.3619L15.3873 10.6852C14.3001 9.6324 12.9002 9 11.2199 9C7.78322 9 5 11.8797 5 15.4355C5 18.9913 7.78322 21.871 11.2199 21.871Z" fill="white"/>
</svg>
