<svg width="164" height="42" viewBox="0 0 164 42" fill="none" xmlns="http://www.w3.org/2000/svg">
<path d="M164 3.07222L140.203 38.6556H147.315C151.496 38.6556 154.583 37.7611 156.654 35.8944C158.725 34.0667 160.132 30.9944 160.835 26.6778H163.961L162.984 42H128.207V38.6556L151.926 3.07222H146.182C142.235 3.07222 139.226 4.00556 137.155 5.91111C135.084 7.81667 133.716 10.9278 133.013 15.2056H129.614L130.942 0H164V3.07222V3.07222Z" fill="white"/>
<path d="M121.486 0H0V21H121.486V0Z" fill="white"/>
<path d="M6.25208 3.73333H8.75292V13.3389L16.021 3.73333H18.3655V17.2667H15.8647V7.66111L8.59661 17.2667H6.25208V3.73333Z" fill="#0E5C83"/>
<path d="M34.0348 3.73333V17.2667H31.4949V11.4722H24.4613V17.2667H21.9214V3.73333H24.4613V9.33333H31.4949V3.73333H34.0348Z" fill="#0E5C83"/>
<path d="M47.6722 5.87222H43.1785V17.2667H40.6776V5.87222H36.184V3.73333H47.6722V5.87222Z" fill="#0E5C83"/>
<path d="M60.02 15.1667V17.2667H49.8213V3.73333H59.7856V5.83333H52.3612V9.33333H58.9259V11.3944H52.3612V15.1667H60.02Z" fill="#0E5C83"/>
<path d="M71.3128 4.31666C72.1725 4.70555 72.8368 5.25 73.3057 5.98889C73.7746 6.72777 74.0091 7.58333 74.0091 8.55555C74.0091 9.52777 73.7746 10.3833 73.3057 11.1222C72.8368 11.8611 72.1725 12.4056 71.3128 12.7944C70.4532 13.1833 69.3981 13.3778 68.2259 13.3778H65.178V17.2667H62.6381V3.73333H68.2259C69.3981 3.73333 70.4532 3.92777 71.3128 4.31666ZM70.6095 10.5389C71.1956 10.0722 71.4691 9.41111 71.4691 8.55555C71.4691 7.7 71.1956 7.03889 70.6095 6.57222C70.0234 6.10555 69.2028 5.87222 68.1087 5.87222H65.178V11.2389H68.1087C69.2028 11.2389 70.0624 11.0056 70.6095 10.5389Z" fill="#0E5C83"/>
<path d="M88.4279 3.73333V17.2667H85.888V11.4722H78.8544V17.2667H76.3145V3.73333H78.8544V9.33333H85.888V3.73333H88.4279Z" fill="#0E5C83"/>
<path d="M102.222 15.1667V17.2667H92.0229V3.73333H101.948V5.83333H94.5628V9.33333H101.127V11.3944H94.5628V15.1667H102.222Z" fill="#0E5C83"/>
<path d="M115.273 5.87222H110.779V17.2667H108.239V5.87222H103.746V3.73333H115.273V5.87222Z" fill="#0E5C83"/>
<path d="M14.4189 41.7667L14.3798 31.3833L9.22183 39.9778H7.93233L2.77436 31.5389V41.8056H0V26.0944H2.42268L8.63569 36.4389L14.8096 26.0944H17.1932L17.2323 41.7667H14.4189V41.7667Z" fill="white"/>
<path d="M33.2142 38.15H25.321L23.7579 41.7667H20.7491L27.8218 26.0944H30.7134L37.8251 41.7667H34.7772L33.2142 38.15ZM32.2373 35.8556L29.2676 29.0111L26.3369 35.8556H32.2373V35.8556Z" fill="white"/>
<path d="M52.0095 28.5833H44.1944L44.2335 41.8056H41.3419V26.0944H52.0095V28.5833Z" fill="white"/>
<path d="M63.9666 38.15H56.1124L54.5494 41.7667H51.5406L58.6133 26.0944H61.5049L68.6166 41.7667H65.5687L63.9666 38.15ZM62.9897 35.8556L60.02 29.0111L57.0893 35.8556H62.9897V35.8556Z" fill="white"/>
<path d="M83.1918 35.0389C83.7389 35.7 83.9733 36.4778 83.9733 37.3722C83.9733 38.3056 83.6607 39.1222 83.0355 39.8222C82.4103 40.5222 81.5897 41.0667 80.5737 41.4167C79.5578 41.8056 78.4246 41.9611 77.2132 41.9611C76.1582 41.9611 75.1032 41.8056 74.0481 41.5333C72.9931 41.2611 72.0162 40.7944 71.1175 40.2111L72.0553 38.0722C72.7586 38.5389 73.5011 38.8889 74.3607 39.1222C75.1813 39.3556 76.041 39.4722 76.8616 39.4722C78.0338 39.4722 79.0498 39.2389 79.8313 38.7722C80.6128 38.3055 81.0036 37.6833 81.0036 36.8667C81.0036 36.1667 80.73 35.6611 80.1439 35.3111C79.5578 34.9611 78.7763 34.7667 77.7994 34.7667H74.1263V32.4722H77.5649C78.4246 32.4722 79.1279 32.2778 79.5969 31.9278C80.1048 31.5778 80.3393 31.0722 80.3393 30.4889C80.3393 29.75 79.9876 29.2056 79.3233 28.7778C78.659 28.3889 77.7994 28.1556 76.7834 28.1556C76.0801 28.1556 75.3376 28.2722 74.5952 28.4667C73.8527 28.6611 73.1494 28.9722 72.4851 29.3611L71.5473 27.0278C72.3679 26.6 73.2275 26.2889 74.1263 26.0556C75.025 25.8222 75.9238 25.7444 76.8225 25.7444C77.9948 25.7444 79.0498 25.9389 80.0658 26.2889C81.0426 26.6389 81.8242 27.1444 82.4103 27.8056C82.9964 28.4667 83.27 29.2444 83.27 30.1389C83.27 30.9167 83.0746 31.5778 82.6447 32.1611C82.2149 32.7444 81.6288 33.1722 80.9254 33.5222C81.9023 33.9111 82.6447 34.3778 83.1918 35.0389Z" fill="white"/>
<path d="M88.2326 26.0944H91.1241V37.2167L99.5644 26.0944H102.3V41.7667H99.4081V30.6833L90.9678 41.7667H88.2326V26.0944Z" fill="white"/>
<path d="M121.486 26.0944V41.7667H118.555V35.0389H110.427V41.7667H107.497V26.0944H110.427V32.55H118.555V26.0944H121.486Z" fill="white"/>
</svg>
