<svg width="239" height="69" viewBox="0 0 239 69" fill="none" xmlns="http://www.w3.org/2000/svg">
<path d="M238.19 5.81323L203.628 62.6812H213.957C220.03 62.6812 224.513 61.2517 227.521 58.2685C230.529 55.3474 232.572 50.4375 233.593 43.5387H238.134L236.715 68.0261H186.205V62.6812L220.654 5.81323H212.311C206.579 5.81323 202.209 7.30485 199.201 10.3502C196.194 13.3956 194.207 18.3677 193.186 25.2043H188.248L190.178 0.90332H238.19V5.81323V5.81323Z" fill="#0E5C83"/>
<path d="M176.444 0.90332H0V34.4647H176.444V0.90332Z" fill="#B2B2B2"/>
<path d="M9.08038 6.86963H12.7125V22.2209L23.2685 6.86963H26.6737V28.4981H23.0415V13.1469L12.4855 28.4981H9.08038V6.86963Z" fill="white"/>
<path d="M49.4314 6.86963V28.4981H45.7425V19.2376H35.5271V28.4981H31.8381V6.86963H35.5271V15.8193H45.7425V6.86963H49.4314Z" fill="white"/>
<path d="M69.2381 10.2879H62.7115V28.4981H59.0794V10.2879H52.5528V6.86963H69.2381V10.2879Z" fill="white"/>
<path d="M87.1719 25.1419V28.4981H72.3594V6.86963H86.8313V10.2258H76.0483V15.8193H85.5828V19.1133H76.0483V25.1419H87.1719Z" fill="white"/>
<path d="M103.573 7.80189C104.822 8.4234 105.787 9.29351 106.468 10.4744C107.149 11.6552 107.489 13.0226 107.489 14.5763C107.489 16.1301 107.149 17.4974 106.468 18.6783C105.787 19.8591 104.822 20.7292 103.573 21.3508C102.325 21.9723 100.792 22.283 99.0899 22.283H94.6632V28.4981H90.9743V6.86963H99.0899C100.792 6.86963 102.325 7.18038 103.573 7.80189ZM102.552 17.746C103.403 17.0002 103.8 15.9436 103.8 14.5763C103.8 13.209 103.403 12.1524 102.552 11.4066C101.701 10.6608 100.509 10.2879 98.9196 10.2879H94.6632V18.8647H98.9196C100.509 18.8647 101.757 18.4918 102.552 17.746Z" fill="white"/>
<path d="M128.431 6.86963V28.4981H124.742V19.2376H114.527V28.4981H110.838V6.86963H114.527V15.8193H124.742V6.86963H128.431Z" fill="white"/>
<path d="M148.465 25.1419V28.4981H133.652V6.86963H148.067V10.2258H137.341V15.8193H146.875V19.1133H137.341V25.1419H148.465Z" fill="white"/>
<path d="M167.42 10.2879H160.893V28.4981H157.204V10.2879H150.678V6.86963H167.42V10.2879Z" fill="white"/>
<path d="M20.9417 67.653L20.885 51.0587L13.3936 64.794H11.5208L4.02943 51.3073V67.7151H0V42.6062H3.51866L12.5423 59.1383L21.5092 42.6062H24.9711L25.0279 67.653H20.9417V67.653Z" fill="#0E5C83"/>
<path d="M48.2397 61.8729H36.7757L34.5056 67.6529H30.1357L40.4079 42.6062H44.6076L54.9365 67.6529H50.5098L48.2397 61.8729ZM46.8209 58.206L42.5077 47.2675L38.2513 58.206H46.8209V58.206Z" fill="#0E5C83"/>
<path d="M75.5377 46.5838H64.1872L64.2439 67.7151H60.0442V42.6062H75.5377V46.5838Z" fill="#0E5C83"/>
<path d="M92.904 61.8729H81.4967L79.2266 67.6529H74.8567L85.1289 42.6062H89.3286L99.6575 67.6529H95.2308L92.904 61.8729ZM91.4852 58.206L87.172 47.2675L82.9155 58.206H91.4852V58.206Z" fill="#0E5C83"/>
<path d="M120.826 56.9009C121.621 57.9575 121.961 59.2005 121.961 60.63C121.961 62.1216 121.507 63.4267 120.599 64.5455C119.691 65.6642 118.499 66.5343 117.024 67.0936C115.548 67.7151 113.902 67.9637 112.143 67.9637C110.611 67.9637 109.078 67.7151 107.546 67.2801C106.014 66.845 104.595 66.0992 103.29 65.167L104.652 61.7487C105.673 62.4945 106.752 63.0538 108 63.4267C109.192 63.7996 110.44 63.9861 111.632 63.9861C113.335 63.9861 114.81 63.6132 115.945 62.8674C117.08 62.1216 117.648 61.1272 117.648 59.822C117.648 58.7033 117.251 57.8953 116.399 57.336C115.548 56.7766 114.413 56.4659 112.994 56.4659H107.66V52.799H112.654C113.902 52.799 114.924 52.4882 115.605 51.9288C116.343 51.3695 116.683 50.5615 116.683 49.6293C116.683 48.4484 116.172 47.5783 115.208 46.8946C114.243 46.2731 112.994 45.9002 111.519 45.9002C110.497 45.9002 109.419 46.0867 108.341 46.3974C107.262 46.7082 106.241 47.2054 105.276 47.8269L103.914 44.0979C105.106 43.4142 106.354 42.917 107.66 42.5441C108.965 42.1712 110.27 42.0469 111.575 42.0469C113.278 42.0469 114.81 42.3576 116.286 42.917C117.705 43.4763 118.84 44.2843 119.691 45.3409C120.542 46.3974 120.94 47.6404 120.94 49.0699C120.94 50.3129 120.656 51.3695 120.032 52.3018C119.407 53.234 118.556 53.9177 117.534 54.477C118.953 55.0985 120.032 55.8443 120.826 56.9009Z" fill="#0E5C83"/>
<path d="M128.147 42.6062H132.347V60.3813L144.605 42.6062H148.578V67.6529H144.378V49.94L132.12 67.6529H128.147V42.6062Z" fill="#0E5C83"/>
<path d="M176.444 42.6062V67.6529H172.187V56.9009H160.383V67.6529H156.126V42.6062H160.383V52.9232H172.187V42.6062H176.444Z" fill="#0E5C83"/>
</svg>
