<svg width="20" height="20" viewBox="0 0 20 20" fill="none" xmlns="http://www.w3.org/2000/svg">
<circle cx="10" cy="10" r="10" fill="#004667"/>
<path d="M8 16.125H9.25V14.25H13V13H9.25V11.75H12.0625C13.7856 11.75 15.1875 10.3481 15.1875 8.625C15.1875 6.90188 13.7856 5.5 12.0625 5.5H8.625C8.45924 5.5 8.30027 5.56585 8.18306 5.68306C8.06585 5.80027 8 5.95924 8 6.125V10.5H6.125V11.75H8V13H6.125V14.25H8V16.125ZM9.25 6.75H12.0625C13.0963 6.75 13.9375 7.59125 13.9375 8.625C13.9375 9.65875 13.0963 10.5 12.0625 10.5H9.25V6.75Z" fill="white"/>
</svg>
