<svg width="24" height="19" viewBox="0 0 24 19" fill="none" xmlns="http://www.w3.org/2000/svg">
<path d="M1 0C0.447716 0 0 0.447715 0 1V18C0 18.5523 0.447715 19 1 19H23C23.5523 19 24 18.5523 24 18V1C24 0.447715 23.5523 0 23 0H1ZM21.4 1.58333C21.9523 1.58333 22.4 2.03105 22.4 2.58333V7.70833C22.4 8.26062 21.9523 8.70833 21.4 8.70833H2.6C2.04772 8.70833 1.6 8.26062 1.6 7.70833V2.58333C1.6 2.03105 2.04772 1.58333 2.6 1.58333H21.4ZM2.6 17.4167C2.04772 17.4167 1.6 16.969 1.6 16.4167V11.2917C1.6 10.7394 2.04772 10.2917 2.6 10.2917H21.4C21.9523 10.2917 22.4 10.7394 22.4 11.2917V16.4167C22.4 16.969 21.9523 17.4167 21.4 17.4167H2.6Z" fill="white"/>
</svg>
