<svg width="112" height="112" viewBox="0 0 112 112" fill="none" xmlns="http://www.w3.org/2000/svg">
<path d="M56 0C25.0705 0 0 25.0705 0 56C0 86.9295 25.0705 112 56 112C86.926 112 112 86.926 112 56C112 25.0705 86.926 0 56 0ZM56 105C28.9381 105 7.00011 83.0619 7.00011 56C7.00011 28.9381 28.9381 7.00011 56 7.00011C83.0619 7.00011 105 28.9381 105 56C105 83.0619 83.0619 105 56 105Z" fill="#57D537"/>
<path d="M81.5499 36.3755L45.5418 72.0615L30.5582 57.3756C29.1792 56.007 26.9393 56.007 25.5603 57.3756C24.1778 58.7441 24.1778 60.9596 25.5603 62.3246L43.0567 79.471C44.4915 80.7345 46.6372 80.8744 48.0546 79.471L86.551 41.3246C87.93 39.9595 87.93 37.7406 86.551 36.3755C85.1687 35.0105 82.9324 35.0105 81.5499 36.3755Z" fill="#57D537"/>
</svg>
