<svg width="18" height="18" viewBox="0 0 18 18" fill="none" xmlns="http://www.w3.org/2000/svg">
<rect width="18" height="18" rx="5" fill="white"/>
<path d="M9 15.3C12.4794 15.3 15.3 12.4794 15.3 9C15.3 5.52061 12.4794 2.7 9 2.7C5.5206 2.7 2.7 5.52061 2.7 9C2.7 12.4794 5.5206 15.3 9 15.3Z" fill="#039BE5"/>
<path d="M5.71429 8.7151L11.7004 6.3292C11.9783 6.22544 12.2209 6.39926 12.1309 6.83355L12.1314 6.83301L11.1122 11.7968C11.0366 12.1487 10.8343 12.2343 10.5513 12.0685L8.99917 10.886L8.25052 11.6316C8.16774 11.7171 8.09789 11.7893 7.9375 11.7893L8.0477 10.1565L10.9244 7.47C11.0496 7.35608 10.8964 7.2919 10.7314 7.40529L7.17642 9.71898L5.64393 9.2248C5.31125 9.11569 5.30401 8.8809 5.71429 8.7151V8.7151Z" fill="white"/>
</svg>
