<svg width="23" height="29" viewBox="0 0 23 29" fill="none" xmlns="http://www.w3.org/2000/svg">
<path d="M11.5057 16.5056C9.88083 16.5056 8.29247 16.0216 6.94145 15.1148C5.59044 14.2079 4.53745 12.919 3.91565 11.411C3.29384 9.90301 3.13115 8.24365 3.44814 6.64276C3.76514 5.04187 4.54758 3.57137 5.69652 2.41719C6.84546 1.26302 8.30931 0.477015 9.90294 0.158579C11.4966 -0.159857 13.1484 0.00357582 14.6496 0.628211C16.1507 1.25285 17.4338 2.31063 18.3365 3.66779C19.2393 5.02496 19.7211 6.62055 19.7211 8.2528C19.7211 9.33658 19.5086 10.4097 19.0957 11.411C18.6829 12.4123 18.0777 13.3221 17.3148 14.0884C16.552 14.8548 15.6463 15.4627 14.6496 15.8774C13.6528 16.2921 12.5845 16.5056 11.5057 16.5056ZM11.5057 1.10038C10.0975 1.10038 8.7209 1.51986 7.55002 2.30578C6.37914 3.0917 5.46655 4.20875 4.92765 5.51569C4.38876 6.82262 4.24776 8.26074 4.52248 9.64817C4.79721 11.0356 5.47532 12.31 6.47108 13.3103C7.46683 14.3106 8.73549 14.9918 10.1166 15.2678C11.4978 15.5438 12.9294 15.4021 14.2304 14.8608C15.5314 14.3194 16.6434 13.4027 17.4258 12.2265C18.2081 11.0503 18.6257 9.66742 18.6257 8.2528C18.6228 6.35675 17.8717 4.5392 16.5371 3.19849C15.2025 1.85778 13.3931 1.10329 11.5057 1.10038Z" fill="white"/>
<path d="M22.4594 28.61H0.551652C0.406394 28.61 0.267086 28.5521 0.164373 28.4489C0.0616606 28.3457 0.00395714 28.2058 0.00395714 28.0598V21.4576C-0.00131905 21.4064 -0.00131905 21.3548 0.00395714 21.3036C0.529744 19.4769 2.19474 18.2115 3.72828 17.1001C4.08976 16.825 4.42933 16.5719 4.74699 16.3079C4.85603 16.2231 4.99242 16.1818 5.12993 16.1919C5.26743 16.2021 5.39635 16.263 5.49186 16.3629C6.27195 17.1589 7.21142 17.7795 8.24812 18.1836C9.28483 18.5876 10.3951 18.7659 11.5056 18.7067C12.6092 18.7638 13.7123 18.5844 14.7416 18.1803C15.7709 17.7762 16.7028 17.1567 17.4754 16.3629C17.5709 16.263 17.6999 16.2021 17.8374 16.1919C17.9749 16.1818 18.1113 16.2231 18.2203 16.3079C18.538 16.5719 18.8775 16.825 19.239 17.0891C20.7397 18.1895 22.4375 19.4769 22.9633 21.3036C22.9686 21.3548 22.9686 21.4064 22.9633 21.4576V28.0598C22.9638 28.1984 22.9121 28.3321 22.8187 28.4341C22.7253 28.5361 22.597 28.5989 22.4594 28.61ZM1.09935 27.5097H21.9118V21.5346C21.4626 20.1041 19.951 18.9708 18.6256 17.9804L17.9574 17.4742C16.196 19.0741 13.8779 19.9123 11.5056 19.807C9.13409 19.9063 6.81818 19.069 5.0537 17.4742L4.37456 17.9804C3.03819 18.9708 1.52655 20.1041 1.08839 21.5346L1.09935 27.5097Z" fill="white"/>
</svg>
