<svg width="18" height="18" viewBox="0 0 18 18" fill="none" xmlns="http://www.w3.org/2000/svg">
<rect width="18" height="18" rx="5" fill="white"/>
<path d="M14.4326 9.87531C14.7936 7.09232 14.2592 5.33534 13.2952 4.54066L13.2957 4.5402C11.7398 3.1831 6.48528 2.98224 4.62385 4.60115C3.78792 5.39306 3.49348 6.5553 3.46121 7.99413C3.42895 9.43341 3.39063 12.1296 6.13386 12.861H6.13638L6.13386 13.978C6.13386 13.978 6.11521 14.4305 6.43082 14.5215C6.79182 14.6286 6.95517 14.4185 8.07798 13.1903C9.95554 13.3394 11.3975 12.9977 11.5613 12.9478C11.9405 12.8315 14.0858 12.5715 14.4326 9.87531ZM8.26301 12.4043C8.26301 12.4043 7.07466 13.7614 6.7051 14.1138C6.58409 14.2283 6.4515 14.2177 6.45351 13.9905C6.45351 13.8413 6.46259 12.1361 6.46259 12.1361C4.13681 11.5256 4.27395 9.22978 4.29916 8.02876C4.32437 6.82727 4.56436 5.84327 5.27222 5.18065C6.90526 3.7783 11.5119 4.09184 12.6857 5.10216C14.1206 6.26716 13.6098 9.55855 13.6128 9.67076C13.3179 11.9213 11.5795 12.064 11.2598 12.1615C11.1232 12.203 9.8552 12.5018 8.26301 12.4043V12.4043Z" fill="#8E24AA"/>
<path d="M8.92065 5.44428C8.72654 5.44428 8.72654 5.72133 8.92065 5.72364C10.4266 5.73426 11.6669 6.69563 11.6805 8.45908C11.6805 8.64516 11.978 8.64285 11.9755 8.45677H11.975C11.9588 6.55665 10.6046 5.4549 8.92065 5.44428V5.44428Z" fill="#8E24AA"/>
<path d="M10.9014 8.16685C10.8969 8.35063 11.1938 8.3594 11.1964 8.17331C11.2211 7.12559 10.5157 6.26257 9.19022 6.17161C8.99611 6.15868 8.97594 6.43804 9.16955 6.45097C10.3191 6.53085 10.9246 7.24934 10.9014 8.16685V8.16685Z" fill="#8E24AA"/>
<path d="M10.5839 9.3586C10.3348 9.22654 10.0812 9.30873 9.97635 9.43848L9.75703 9.69845C9.64561 9.83051 9.43738 9.81297 9.43738 9.81297C7.91779 9.44495 7.51142 7.98857 7.51142 7.98857C7.51142 7.98857 7.49277 7.7914 7.63192 7.68566L7.90619 7.47787C8.04333 7.37813 8.13005 7.13802 7.99039 6.90206C7.6173 6.2847 7.36672 6.07183 7.23916 5.90837C7.10505 5.7546 6.90338 5.71997 6.69364 5.82387H6.68911C6.25299 6.05751 5.77554 6.4948 5.9283 6.94501C6.18896 7.41969 6.66793 8.93286 8.19458 10.0762C8.91203 10.6169 10.0474 11.171 10.5294 11.2989L10.534 11.3054C11.0089 11.4503 11.4707 10.996 11.7173 10.5846V10.5813C11.8267 10.3823 11.7904 10.1939 11.6306 10.0706C11.3472 9.81758 10.9197 9.53822 10.5839 9.3586Z" fill="#8E24AA"/>
<path d="M9.39788 7.20223C9.88239 7.22809 10.1173 7.45989 10.1426 7.93596C10.1516 8.12205 10.4466 8.10912 10.4375 7.92303C10.4052 7.30151 10.0513 6.9552 9.41401 6.92287C9.2199 6.91225 9.20175 7.19161 9.39788 7.20223V7.20223Z" fill="#8E24AA"/>
</svg>
