<svg width="31" height="31" viewBox="0 0 31 31" fill="none" xmlns="http://www.w3.org/2000/svg">
<circle cx="15.5" cy="15.5" r="15.5" fill="#0E5C83"/>
<path d="M20.9368 17.3077C20.6458 16.9227 20.729 16.7514 20.9368 16.4073C20.9405 16.4034 23.3428 12.9258 23.5904 11.7464L23.5919 11.7456C23.7149 11.3159 23.5919 11 22.9971 11H21.029C20.528 11 20.297 11.2711 20.1732 11.5744C20.1732 11.5744 19.1712 14.0871 17.7537 15.7159C17.2961 16.1865 17.0846 16.3374 16.8349 16.3374C16.7119 16.3374 16.5206 16.1865 16.5206 15.7567V11.7456C16.5206 11.2302 16.3804 11 15.9656 11H12.871C12.5567 11 12.37 11.2404 12.37 11.4644C12.37 11.9531 13.0787 12.0654 13.1522 13.4404V16.4238C13.1522 17.0775 13.039 17.1977 12.7877 17.1977C12.1187 17.1977 10.4949 14.6748 9.53262 11.7873C9.33837 11.2271 9.14861 11.0008 8.64384 11.0008H6.67502C6.11325 11.0008 6 11.2719 6 11.5751C6 12.111 6.66902 14.7754 9.11111 18.2954C10.7387 20.6981 13.0307 22 15.1158 22C16.3691 22 16.5221 21.7109 16.5221 21.2135C16.5221 18.9176 16.4089 18.7008 17.0366 18.7008C17.3276 18.7008 17.8287 18.8516 18.9987 20.0106C20.336 21.3848 20.5558 22 21.3043 22H23.2723C23.8334 22 24.1176 21.7109 23.9541 21.1404C23.5799 19.9406 21.0508 17.4727 20.9368 17.3077Z" fill="white"/>
</svg>
