<svg width="18" height="18" viewBox="0 0 18 18" fill="none" xmlns="http://www.w3.org/2000/svg">
<rect width="18" height="18" rx="5" fill="white"/>
<path d="M9.00157 2.7H8.99842C5.52476 2.7 2.7 5.52555 2.7 9C2.7 10.3781 3.14415 11.6555 3.89936 12.6926L3.11422 15.033L5.53578 14.2589C6.53197 14.9189 7.72031 15.3 9.00157 15.3C12.4752 15.3 15.3 12.4737 15.3 9C15.3 5.52634 12.4752 2.7 9.00157 2.7Z" fill="#4CAF50"/>
<path d="M12.4713 11.6349C12.3246 12.0798 11.7425 12.4487 11.2782 12.5565C10.9605 12.6291 10.5456 12.6871 9.14881 12.0651C7.36218 11.27 6.21162 9.31987 6.12194 9.19334C6.03607 9.06681 5.39999 8.16072 5.39999 7.22361C5.39999 6.2865 5.84304 5.83019 6.02163 5.63428C6.1683 5.47347 6.41072 5.4 6.64327 5.4C6.7185 5.4 6.78614 5.40408 6.84693 5.40735C7.02552 5.41551 7.11519 5.42694 7.23299 5.72979C7.37966 6.10937 7.73683 7.04648 7.77939 7.1428C7.8227 7.23912 7.86602 7.36973 7.80523 7.49626C7.74823 7.62686 7.69807 7.68482 7.6084 7.79584C7.51873 7.90685 7.43361 7.99175 7.34394 8.11093C7.26186 8.2146 7.16915 8.32562 7.2725 8.51745C7.37586 8.70519 7.73303 9.3313 8.25891 9.83414C8.93755 10.4831 9.48775 10.6904 9.68457 10.7786C9.83124 10.8439 10.006 10.8284 10.1132 10.7059C10.2492 10.5484 10.4172 10.2872 10.5882 10.03C10.7097 9.84556 10.8633 9.82271 11.0244 9.88801C11.1885 9.94923 12.0571 10.4104 12.2357 10.5059C12.4143 10.6023 12.5321 10.648 12.5754 10.7288C12.618 10.8096 12.618 11.1892 12.4713 11.6349Z" fill="#FAFAFA"/>
</svg>
